M48
; DRILL file {KiCad 9.0.8-9.0.8~ubuntu24.04.1} date 2026-04-19T17:02:17+0200
; FORMAT={-:-/ absolute / metric / decimal}
; #@! TF.CreationDate,2026-04-19T17:02:17+02:00
; #@! TF.GenerationSoftware,Kicad,Pcbnew,9.0.8-9.0.8~ubuntu24.04.1
; #@! TF.FileFunction,MixedPlating,1,2
FMAT,2
METRIC
; #@! TA.AperFunction,Plated,PTH,ComponentDrill
T1C0.800
; #@! TA.AperFunction,Plated,PTH,ComponentDrill
T2C0.889
; #@! TA.AperFunction,Plated,PTH,ComponentDrill
T3C1.300
; #@! TA.AperFunction,NonPlated,NPTH,ComponentDrill
T4C3.200
%
G90
G05
T1
X85.25Y-65.91
X85.25Y-73.53
X87.79Y-65.91
X87.79Y-73.53
X88.85Y-52.62
X88.85Y-60.24
X90.33Y-65.91
X90.33Y-73.53
X92.75Y-99.06
X92.75Y-101.56
X92.87Y-65.91
X92.87Y-73.53
X95.05Y-52.52
X95.05Y-60.14
X95.41Y-65.91
X95.41Y-73.53
X97.95Y-65.91
X97.95Y-73.53
X98.45Y-99.06
X98.45Y-101.56
X100.49Y-65.91
X100.49Y-73.53
X104.25Y-71.11
X104.25Y-73.61
T2
X85.31Y-77.82
X85.31Y-93.06
X87.85Y-77.82
X87.85Y-93.06
X90.39Y-77.82
X90.39Y-93.06
X92.93Y-77.82
X92.93Y-93.06
X95.47Y-77.82
X95.47Y-93.06
X98.01Y-77.82
X98.01Y-93.06
X100.55Y-77.82
X100.55Y-93.06
T3
X74.35Y-83.61
X74.35Y-88.69
X81.25Y-36.25
X81.25Y-41.33
X81.25Y-48.08
X81.25Y-53.16
X81.25Y-58.24
X102.722Y-47.99
X102.722Y-53.07
X102.722Y-58.15
X102.75Y-36.33
X102.75Y-41.41
T4
X73.65Y-100.71
X82.177Y-27.765
X102.677Y-27.965
X110.05Y-100.71
M30
