%TF.GenerationSoftware,KiCad,Pcbnew,9.0.8-9.0.8~ubuntu24.04.1*%
%TF.CreationDate,2026-04-19T16:55:24+02:00*%
%TF.ProjectId,ambilight_kicad,616d6269-6c69-4676-9874-5f6b69636164,rev?*%
%TF.SameCoordinates,Original*%
%TF.FileFunction,Soldermask,Bot*%
%TF.FilePolarity,Negative*%
%FSLAX46Y46*%
G04 Gerber Fmt 4.6, Leading zero omitted, Abs format (unit mm)*
G04 Created by KiCad (PCBNEW 9.0.8-9.0.8~ubuntu24.04.1) date 2026-04-19 16:55:24*
%MOMM*%
%LPD*%
G01*
G04 APERTURE LIST*
G04 Aperture macros list*
%AMRoundRect*
0 Rectangle with rounded corners*
0 $1 Rounding radius*
0 $2 $3 $4 $5 $6 $7 $8 $9 X,Y pos of 4 corners*
0 Add a 4 corners polygon primitive as box body*
4,1,4,$2,$3,$4,$5,$6,$7,$8,$9,$2,$3,0*
0 Add four circle primitives for the rounded corners*
1,1,$1+$1,$2,$3*
1,1,$1+$1,$4,$5*
1,1,$1+$1,$6,$7*
1,1,$1+$1,$8,$9*
0 Add four rect primitives between the rounded corners*
20,1,$1+$1,$2,$3,$4,$5,0*
20,1,$1+$1,$4,$5,$6,$7,0*
20,1,$1+$1,$6,$7,$8,$9,0*
20,1,$1+$1,$8,$9,$2,$3,0*%
G04 Aperture macros list end*
%ADD10C,3.200000*%
%ADD11RoundRect,0.250000X-1.050000X1.050000X-1.050000X-1.050000X1.050000X-1.050000X1.050000X1.050000X0*%
%ADD12C,2.600000*%
%ADD13C,1.600000*%
%ADD14RoundRect,0.250000X1.050000X-1.050000X1.050000X1.050000X-1.050000X1.050000X-1.050000X-1.050000X0*%
%ADD15C,1.524000*%
%ADD16RoundRect,0.250000X-0.550000X0.550000X-0.550000X-0.550000X0.550000X-0.550000X0.550000X0.550000X0*%
G04 APERTURE END LIST*
D10*
%TO.C,H2*%
X102677500Y-27965000D03*
%TD*%
D11*
%TO.C,J1*%
X81250000Y-48080000D03*
D12*
X81250000Y-53160000D03*
X81250000Y-58240000D03*
%TD*%
D13*
%TO.C,C2*%
X98450000Y-101560000D03*
X98450000Y-99060000D03*
%TD*%
%TO.C,C3*%
X92750000Y-101560000D03*
X92750000Y-99060000D03*
%TD*%
D14*
%TO.C,J5*%
X102750000Y-41410000D03*
D12*
X102750000Y-36330000D03*
%TD*%
D11*
%TO.C,J3*%
X74350000Y-83610000D03*
D12*
X74350000Y-88690000D03*
%TD*%
D14*
%TO.C,J2*%
X102722500Y-58150000D03*
D12*
X102722500Y-53070000D03*
X102722500Y-47990000D03*
%TD*%
D13*
%TO.C,R1*%
X88850000Y-60240000D03*
X88850000Y-52620000D03*
%TD*%
D11*
%TO.C,J4*%
X81250000Y-36250000D03*
D12*
X81250000Y-41330000D03*
%TD*%
D10*
%TO.C,H1*%
X82177500Y-27765000D03*
%TD*%
D13*
%TO.C,R2*%
X95050000Y-60140000D03*
X95050000Y-52520000D03*
%TD*%
D15*
%TO.C,U2*%
X100550000Y-77820000D03*
X98010000Y-77820000D03*
X95470000Y-77820000D03*
X92930000Y-77820000D03*
X90390000Y-77820000D03*
X87850000Y-77820000D03*
X85310000Y-77820000D03*
X85310000Y-93060000D03*
X87850000Y-93060000D03*
X90390000Y-93060000D03*
X92930000Y-93060000D03*
X95470000Y-93060000D03*
X98010000Y-93060000D03*
X100550000Y-93060000D03*
%TD*%
D13*
%TO.C,C1*%
X104250000Y-73610000D03*
X104250000Y-71110000D03*
%TD*%
D16*
%TO.C,U1*%
X100490000Y-65910000D03*
D13*
X97950000Y-65910000D03*
X95410000Y-65910000D03*
X92870000Y-65910000D03*
X90330000Y-65910000D03*
X87790000Y-65910000D03*
X85250000Y-65910000D03*
X85250000Y-73530000D03*
X87790000Y-73530000D03*
X90330000Y-73530000D03*
X92870000Y-73530000D03*
X95410000Y-73530000D03*
X97950000Y-73530000D03*
X100490000Y-73530000D03*
%TD*%
D10*
%TO.C,H3*%
X73650000Y-100710000D03*
%TD*%
%TO.C,H4*%
X110050000Y-100710000D03*
%TD*%
M02*
