  0
SECTION
  2
HEADER
  9
$ANGBASE
  50
0.0
  9
$ANGDIR
  70
1
  9
$MEASUREMENT
  70
1
  9
$INSUNITS
  70
4
  0
ENDSEC
  0
SECTION
  2
TABLES
  0
TABLE
  2
LTYPE
  70
4
  0
LTYPE
  5
40F
  2
CONTINUOUS
  70
0
  3
Solid line
  72
65
  73
0
  40
0.0
  0
LTYPE
  5
410
  2
DASHDOT
 70
0
  3
Dash Dot ____ _ ____ _
 72
65
 73
4
 40
2.0
 49
1.25
 49
-0.25
 49
0.25
 49
-0.25
  0
LTYPE
  5
411
  2
DASHED
 70
0
  3
Dashed __ __ __ __ __
 72
65
 73
2
 40
0.75
 49
0.5
 49
-0.25
  0
LTYPE
  5
43B
  2
DOTTED
 70
0
  3
Dotted .  .  .  .
 72
65
 73
2
 40
0.2
 49
0.0
 49
-0.2
  0
ENDTAB
  0
TABLE
  2
STYLE
  70
4
  0
STYLE
  2
KICAD
  70
0
  40
0
  41
1
  42
1
  50
0
  71
0
  3
isocp.shx
  0
STYLE
  2
KICADB
  70
0
  40
0
  41
1
  42
1
  50
0
  71
0
  3
isocp.shx
  0
STYLE
  2
KICADI
  70
0
  40
0
  41
1
  42
1
  50
15
  71
0
  3
isocp.shx
  0
STYLE
  2
KICADBI
  70
0
  40
0
  41
1
  42
1
  50
15
  71
0
  3
isocp.shx
  0
ENDTAB
  0
TABLE
  2
LAYER
  70
1
  0
LAYER
  2
BLACK
  70
0
  62
7
  6
CONTINUOUS
  0
ENDTAB
  0
ENDSEC
  0
SECTION
  2
ENTITIES
0
LINE
8
BLACK
6
CONTINUOUS
10
117.75
20
-21.9849999999999994
11
118.0661989999999975
21
-22.0015709999999984
0
LINE
8
BLACK
6
CONTINUOUS
10
118.0661989999999975
20
-22.0015709999999984
11
118.3789329999999893
21
-22.0511039999999987
0
LINE
8
BLACK
6
CONTINUOUS
10
118.3789329999999893
20
-22.0511039999999987
11
118.6847759999999994
21
-22.1330539999999978
0
LINE
8
BLACK
6
CONTINUOUS
10
118.6847759999999994
20
-22.1330539999999978
11
118.9803779999999875
21
-22.2465249999999983
0
LINE
8
BLACK
6
CONTINUOUS
10
118.9803779999999875
20
-22.2465249999999983
11
119.2624999999999886
21
-22.390273999999998
0
LINE
8
BLACK
6
CONTINUOUS
10
119.2624999999999886
20
-22.390273999999998
11
119.5280499999999932
21
-22.5627239999999993
0
LINE
8
BLACK
6
CONTINUOUS
10
119.5280499999999932
20
-22.5627239999999993
11
119.7741199999999964
21
-22.7619869999999977
0
LINE
8
BLACK
6
CONTINUOUS
10
119.7741199999999964
20
-22.7619869999999977
11
119.9980130000000003
21
-22.9858799999999981
0
LINE
8
BLACK
6
CONTINUOUS
10
119.9980130000000003
20
-22.9858799999999981
11
120.197275999999988
21
-23.2319499999999977
0
LINE
8
BLACK
6
CONTINUOUS
10
120.197275999999988
20
-23.2319499999999977
11
120.369726
21
-23.4974999999999987
0
LINE
8
BLACK
6
CONTINUOUS
10
120.369726
20
-23.4974999999999987
11
120.5134749999999997
21
-23.7796219999999998
0
LINE
8
BLACK
6
CONTINUOUS
10
120.5134749999999997
20
-23.7796219999999998
11
120.6269459999999896
21
-24.0752239999999986
0
LINE
8
BLACK
6
CONTINUOUS
10
120.6269459999999896
20
-24.0752239999999986
11
120.7088959999999958
21
-24.381066999999998
0
LINE
8
BLACK
6
CONTINUOUS
10
120.7088959999999958
20
-24.381066999999998
11
120.7584289999999925
21
-24.6938010000000006
0
LINE
8
BLACK
6
CONTINUOUS
10
120.7584289999999925
20
-24.6938010000000006
11
120.7749999999999915
21
-25.009999999999998
0
LINE
8
BLACK
6
CONTINUOUS
10
120.7749999999999915
20
-25.009999999999998
11
120.7749999999999915
21
-108.0099999999999909
0
LINE
8
BLACK
6
CONTINUOUS
10
120.7749999999999915
20
-108.0099999999999909
11
120.7584289999999925
21
-108.3261989999999884
0
LINE
8
BLACK
6
CONTINUOUS
10
120.7584289999999925
20
-108.3261989999999884
11
120.7088959999999958
21
-108.6389329999999944
0
LINE
8
BLACK
6
CONTINUOUS
10
120.7088959999999958
20
-108.6389329999999944
11
120.6269459999999896
21
-108.9447759999999903
0
LINE
8
BLACK
6
CONTINUOUS
10
120.6269459999999896
20
-108.9447759999999903
11
120.5134749999999997
21
-109.2403779999999927
0
LINE
8
BLACK
6
CONTINUOUS
10
120.5134749999999997
20
-109.2403779999999927
11
120.369726
21
-109.5224999999999937
0
LINE
8
BLACK
6
CONTINUOUS
10
120.369726
20
-109.5224999999999937
11
120.197275999999988
21
-109.7880499999999984
0
LINE
8
BLACK
6
CONTINUOUS
10
120.197275999999988
20
-109.7880499999999984
11
119.9980130000000003
21
-110.0341200000000015
0
LINE
8
BLACK
6
CONTINUOUS
10
119.9980130000000003
20
-110.0341200000000015
11
119.7741199999999964
21
-110.2580129999999912
0
LINE
8
BLACK
6
CONTINUOUS
10
119.7741199999999964
20
-110.2580129999999912
11
119.5280499999999932
21
-110.4572759999999931
0
LINE
8
BLACK
6
CONTINUOUS
10
119.5280499999999932
20
-110.4572759999999931
11
119.2624999999999886
21
-110.6297259999999909
0
LINE
8
BLACK
6
CONTINUOUS
10
119.2624999999999886
20
-110.6297259999999909
11
118.9803779999999875
21
-110.7734749999999906
0
LINE
8
BLACK
6
CONTINUOUS
10
118.9803779999999875
20
-110.7734749999999906
11
118.6847759999999994
21
-110.8869459999999947
0
LINE
8
BLACK
6
CONTINUOUS
10
118.6847759999999994
20
-110.8869459999999947
11
118.3789329999999893
21
-110.9688960000000009
0
LINE
8
BLACK
6
CONTINUOUS
10
118.3789329999999893
20
-110.9688960000000009
11
118.0661989999999975
21
-111.0184289999999976
0
LINE
8
BLACK
6
CONTINUOUS
10
118.0661989999999975
20
-111.0184289999999976
11
117.75
21
-111.0349999999999966
0
LINE
8
BLACK
6
CONTINUOUS
10
117.75
20
-111.0349999999999966
11
65.75
21
-111.0349999999999966
0
LINE
8
BLACK
6
CONTINUOUS
10
65.75
20
-111.0349999999999966
11
65.4338010000000025
21
-111.0184289999999976
0
LINE
8
BLACK
6
CONTINUOUS
10
65.4338010000000025
20
-111.0184289999999976
11
65.1210669999999965
21
-110.9688960000000009
0
LINE
8
BLACK
6
CONTINUOUS
10
65.1210669999999965
20
-110.9688960000000009
11
64.8152240000000006
21
-110.8869459999999947
0
LINE
8
BLACK
6
CONTINUOUS
10
64.8152240000000006
20
-110.8869459999999947
11
64.5196219999999983
21
-110.7734749999999906
0
LINE
8
BLACK
6
CONTINUOUS
10
64.5196219999999983
20
-110.7734749999999906
11
64.2374999999999972
21
-110.6297259999999909
0
LINE
8
BLACK
6
CONTINUOUS
10
64.2374999999999972
20
-110.6297259999999909
11
63.9719499999999996
21
-110.4572759999999931
0
LINE
8
BLACK
6
CONTINUOUS
10
63.9719499999999996
20
-110.4572759999999931
11
63.7258799999999965
21
-110.2580129999999912
0
LINE
8
BLACK
6
CONTINUOUS
10
63.7258799999999965
20
-110.2580129999999912
11
63.5019869999999997
21
-110.0341200000000015
0
LINE
8
BLACK
6
CONTINUOUS
10
63.5019869999999997
20
-110.0341200000000015
11
63.3027239999999978
21
-109.7880499999999984
0
LINE
8
BLACK
6
CONTINUOUS
10
63.3027239999999978
20
-109.7880499999999984
11
63.130274
21
-109.5224999999999937
0
LINE
8
BLACK
6
CONTINUOUS
10
63.130274
20
-109.5224999999999937
11
62.9865250000000003
21
-109.2403779999999927
0
LINE
8
BLACK
6
CONTINUOUS
10
62.9865250000000003
20
-109.2403779999999927
11
62.8730539999999962
21
-108.9447759999999903
0
LINE
8
BLACK
6
CONTINUOUS
10
62.8730539999999962
20
-108.9447759999999903
11
62.7911039999999971
21
-108.6389329999999944
0
LINE
8
BLACK
6
CONTINUOUS
10
62.7911039999999971
20
-108.6389329999999944
11
62.7415710000000004
21
-108.3261989999999884
0
LINE
8
BLACK
6
CONTINUOUS
10
62.7415710000000004
20
-108.3261989999999884
11
62.7249999999999943
21
-108.0099999999999909
0
LINE
8
BLACK
6
CONTINUOUS
10
62.7249999999999943
20
-108.0099999999999909
11
62.7249999999999943
21
-25.009999999999998
0
LINE
8
BLACK
6
CONTINUOUS
10
62.7249999999999943
20
-25.009999999999998
11
62.7415710000000004
21
-24.6938010000000006
0
LINE
8
BLACK
6
CONTINUOUS
10
62.7415710000000004
20
-24.6938010000000006
11
62.7911039999999971
21
-24.381066999999998
0
LINE
8
BLACK
6
CONTINUOUS
10
62.7911039999999971
20
-24.381066999999998
11
62.8730539999999962
21
-24.0752239999999986
0
LINE
8
BLACK
6
CONTINUOUS
10
62.8730539999999962
20
-24.0752239999999986
11
62.9865250000000003
21
-23.7796219999999998
0
LINE
8
BLACK
6
CONTINUOUS
10
62.9865250000000003
20
-23.7796219999999998
11
63.130274
21
-23.4974999999999987
0
LINE
8
BLACK
6
CONTINUOUS
10
63.130274
20
-23.4974999999999987
11
63.3027239999999978
21
-23.2319499999999977
0
LINE
8
BLACK
6
CONTINUOUS
10
63.3027239999999978
20
-23.2319499999999977
11
63.5019869999999997
21
-22.9858799999999981
0
LINE
8
BLACK
6
CONTINUOUS
10
63.5019869999999997
20
-22.9858799999999981
11
63.7258799999999965
21
-22.7619869999999977
0
LINE
8
BLACK
6
CONTINUOUS
10
63.7258799999999965
20
-22.7619869999999977
11
63.9719499999999996
21
-22.5627239999999993
0
LINE
8
BLACK
6
CONTINUOUS
10
63.9719499999999996
20
-22.5627239999999993
11
64.2374999999999972
21
-22.390273999999998
0
LINE
8
BLACK
6
CONTINUOUS
10
64.2374999999999972
20
-22.390273999999998
11
64.5196219999999983
21
-22.2465249999999983
0
LINE
8
BLACK
6
CONTINUOUS
10
64.5196219999999983
20
-22.2465249999999983
11
64.8152240000000006
21
-22.1330539999999978
0
LINE
8
BLACK
6
CONTINUOUS
10
64.8152240000000006
20
-22.1330539999999978
11
65.1210669999999965
21
-22.0511039999999987
0
LINE
8
BLACK
6
CONTINUOUS
10
65.1210669999999965
20
-22.0511039999999987
11
65.4338010000000025
21
-22.0015709999999984
0
LINE
8
BLACK
6
CONTINUOUS
10
65.4338010000000025
20
-22.0015709999999984
11
65.75
21
-21.9849999999999994
0
LINE
8
BLACK
6
CONTINUOUS
10
65.75
20
-21.9849999999999994
11
117.75
21
-21.9849999999999994
0
LINE
8
BLACK
6
CONTINUOUS
10
65.75
20
-22.0350000000000001
11
65.5940870000000018
21
-22.0350000000000001
0
LINE
8
BLACK
6
CONTINUOUS
10
65.5940870000000018
20
-22.0350000000000001
11
65.283968999999999
21
-22.0675950000000007
0
LINE
8
BLACK
6
CONTINUOUS
10
65.283968999999999
20
-22.0675950000000007
11
64.9789569999999941
21
-22.1324269999999999
0
LINE
8
BLACK
6
CONTINUOUS
10
64.9789569999999941
20
-22.1324269999999999
11
64.682391999999993
21
-22.2287870000000005
0
LINE
8
BLACK
6
CONTINUOUS
10
64.682391999999993
20
-22.2287870000000005
11
64.3975250000000017
21
-22.3556179999999998
0
LINE
8
BLACK
6
CONTINUOUS
10
64.3975250000000017
20
-22.3556179999999998
11
64.127475000000004
21
-22.511530999999998
0
LINE
8
BLACK
6
CONTINUOUS
10
64.127475000000004
20
-22.511530999999998
11
63.8752029999999991
21
-22.6948179999999979
0
LINE
8
BLACK
6
CONTINUOUS
10
63.8752029999999991
20
-22.6948179999999979
11
63.6434709999999981
21
-22.9034709999999997
0
LINE
8
BLACK
6
CONTINUOUS
10
63.6434709999999981
20
-22.9034709999999997
11
63.4348179999999999
21
-23.1352030000000006
0
LINE
8
BLACK
6
CONTINUOUS
10
63.4348179999999999
20
-23.1352030000000006
11
63.2515309999999999
21
-23.3874749999999985
0
LINE
8
BLACK
6
CONTINUOUS
10
63.2515309999999999
20
-23.3874749999999985
11
63.0956179999999947
21
-23.6575249999999997
0
LINE
8
BLACK
6
CONTINUOUS
10
63.0956179999999947
20
-23.6575249999999997
11
62.968786999999999
21
-23.9423919999999981
0
LINE
8
BLACK
6
CONTINUOUS
10
62.968786999999999
20
-23.9423919999999981
11
62.8724269999999947
21
-24.2389569999999992
0
LINE
8
BLACK
6
CONTINUOUS
10
62.8724269999999947
20
-24.2389569999999992
11
62.8075949999999992
21
-24.5439690000000006
0
LINE
8
BLACK
6
CONTINUOUS
10
62.8075949999999992
20
-24.5439690000000006
11
62.7749999999999986
21
-24.8540869999999998
0
LINE
8
BLACK
6
CONTINUOUS
10
62.7749999999999986
20
-24.8540869999999998
11
62.7749999999999986
21
-25.009999999999998
0
LINE
8
BLACK
6
CONTINUOUS
10
62.7749999999999986
20
-25.009999999999998
11
62.7749999999999986
21
-108.0099999999999909
0
LINE
8
BLACK
6
CONTINUOUS
10
62.7749999999999986
20
-108.0099999999999909
11
62.7749999999999986
21
-108.1659129999999891
0
LINE
8
BLACK
6
CONTINUOUS
10
62.7749999999999986
20
-108.1659129999999891
11
62.8075949999999992
21
-108.4760309999999919
0
LINE
8
BLACK
6
CONTINUOUS
10
62.8075949999999992
20
-108.4760309999999919
11
62.8724269999999947
21
-108.7810429999999968
0
LINE
8
BLACK
6
CONTINUOUS
10
62.8724269999999947
20
-108.7810429999999968
11
62.968786999999999
21
-109.0776079999999979
0
LINE
8
BLACK
6
CONTINUOUS
10
62.968786999999999
20
-109.0776079999999979
11
63.0956179999999947
21
-109.3624749999999892
0
LINE
8
BLACK
6
CONTINUOUS
10
63.0956179999999947
20
-109.3624749999999892
11
63.2515309999999999
21
-109.6325250000000011
0
LINE
8
BLACK
6
CONTINUOUS
10
63.2515309999999999
20
-109.6325250000000011
11
63.4348179999999999
21
-109.8847969999999918
0
LINE
8
BLACK
6
CONTINUOUS
10
63.4348179999999999
20
-109.8847969999999918
11
63.6434709999999981
21
-110.1165289999999999
0
LINE
8
BLACK
6
CONTINUOUS
10
63.6434709999999981
20
-110.1165289999999999
11
63.8752029999999991
21
-110.3251819999999981
0
LINE
8
BLACK
6
CONTINUOUS
10
63.8752029999999991
20
-110.3251819999999981
11
64.127475000000004
21
-110.508468999999991
0
LINE
8
BLACK
6
CONTINUOUS
10
64.127475000000004
20
-110.508468999999991
11
64.3975250000000017
21
-110.6643819999999891
0
LINE
8
BLACK
6
CONTINUOUS
10
64.3975250000000017
20
-110.6643819999999891
11
64.682391999999993
21
-110.7912129999999991
0
LINE
8
BLACK
6
CONTINUOUS
10
64.682391999999993
20
-110.7912129999999991
11
64.9789569999999941
21
-110.8875729999999891
0
LINE
8
BLACK
6
CONTINUOUS
10
64.9789569999999941
20
-110.8875729999999891
11
65.283968999999999
21
-110.9524049999999988
0
LINE
8
BLACK
6
CONTINUOUS
10
65.283968999999999
20
-110.9524049999999988
11
65.5940870000000018
21
-110.9849999999999994
0
LINE
8
BLACK
6
CONTINUOUS
10
65.5940870000000018
20
-110.9849999999999994
11
65.75
21
-110.9849999999999994
0
LINE
8
BLACK
6
CONTINUOUS
10
65.75
20
-110.9849999999999994
11
117.75
21
-110.9849999999999994
0
LINE
8
BLACK
6
CONTINUOUS
10
117.75
20
-110.9849999999999994
11
117.9059129999999982
21
-110.9849999999999994
0
LINE
8
BLACK
6
CONTINUOUS
10
117.9059129999999982
20
-110.9849999999999994
11
118.216031000000001
21
-110.9524049999999988
0
LINE
8
BLACK
6
CONTINUOUS
10
118.216031000000001
20
-110.9524049999999988
11
118.5210429999999917
21
-110.8875729999999891
0
LINE
8
BLACK
6
CONTINUOUS
10
118.5210429999999917
20
-110.8875729999999891
11
118.8176079999999928
21
-110.7912129999999991
0
LINE
8
BLACK
6
CONTINUOUS
10
118.8176079999999928
20
-110.7912129999999991
11
119.1024749999999983
21
-110.6643819999999891
0
LINE
8
BLACK
6
CONTINUOUS
10
119.1024749999999983
20
-110.6643819999999891
11
119.372524999999996
21
-110.508468999999991
0
LINE
8
BLACK
6
CONTINUOUS
10
119.372524999999996
20
-110.508468999999991
11
119.6247970000000009
21
-110.3251819999999981
0
LINE
8
BLACK
6
CONTINUOUS
10
119.6247970000000009
20
-110.3251819999999981
11
119.8565289999999948
21
-110.1165289999999999
0
LINE
8
BLACK
6
CONTINUOUS
10
119.8565289999999948
20
-110.1165289999999999
11
120.065181999999993
21
-109.8847969999999918
0
LINE
8
BLACK
6
CONTINUOUS
10
120.065181999999993
20
-109.8847969999999918
11
120.2484690000000001
21
-109.6325250000000011
0
LINE
8
BLACK
6
CONTINUOUS
10
120.2484690000000001
20
-109.6325250000000011
11
120.4043819999999982
21
-109.3624749999999892
0
LINE
8
BLACK
6
CONTINUOUS
10
120.4043819999999982
20
-109.3624749999999892
11
120.5312129999999939
21
-109.0776079999999979
0
LINE
8
BLACK
6
CONTINUOUS
10
120.5312129999999939
20
-109.0776079999999979
11
120.6275729999999982
21
-108.7810429999999968
0
LINE
8
BLACK
6
CONTINUOUS
10
120.6275729999999982
20
-108.7810429999999968
11
120.6924049999999937
21
-108.4760309999999919
0
LINE
8
BLACK
6
CONTINUOUS
10
120.6924049999999937
20
-108.4760309999999919
11
120.7249999999999943
21
-108.1659129999999891
0
LINE
8
BLACK
6
CONTINUOUS
10
120.7249999999999943
20
-108.1659129999999891
11
120.7249999999999943
21
-108.0099999999999909
0
LINE
8
BLACK
6
CONTINUOUS
10
120.7249999999999943
20
-108.0099999999999909
11
120.7249999999999943
21
-25.009999999999998
0
LINE
8
BLACK
6
CONTINUOUS
10
120.7249999999999943
20
-25.009999999999998
11
120.7249999999999943
21
-24.8540869999999998
0
LINE
8
BLACK
6
CONTINUOUS
10
120.7249999999999943
20
-24.8540869999999998
11
120.6924049999999937
21
-24.5439690000000006
0
LINE
8
BLACK
6
CONTINUOUS
10
120.6924049999999937
20
-24.5439690000000006
11
120.6275729999999982
21
-24.2389569999999992
0
LINE
8
BLACK
6
CONTINUOUS
10
120.6275729999999982
20
-24.2389569999999992
11
120.5312129999999939
21
-23.9423919999999981
0
LINE
8
BLACK
6
CONTINUOUS
10
120.5312129999999939
20
-23.9423919999999981
11
120.4043819999999982
21
-23.6575249999999997
0
LINE
8
BLACK
6
CONTINUOUS
10
120.4043819999999982
20
-23.6575249999999997
11
120.2484690000000001
21
-23.3874749999999985
0
LINE
8
BLACK
6
CONTINUOUS
10
120.2484690000000001
20
-23.3874749999999985
11
120.065181999999993
21
-23.1352030000000006
0
LINE
8
BLACK
6
CONTINUOUS
10
120.065181999999993
20
-23.1352030000000006
11
119.8565289999999948
21
-22.9034709999999997
0
LINE
8
BLACK
6
CONTINUOUS
10
119.8565289999999948
20
-22.9034709999999997
11
119.6247970000000009
21
-22.6948179999999979
0
LINE
8
BLACK
6
CONTINUOUS
10
119.6247970000000009
20
-22.6948179999999979
11
119.372524999999996
21
-22.511530999999998
0
LINE
8
BLACK
6
CONTINUOUS
10
119.372524999999996
20
-22.511530999999998
11
119.1024749999999983
21
-22.3556179999999998
0
LINE
8
BLACK
6
CONTINUOUS
10
119.1024749999999983
20
-22.3556179999999998
11
118.8176079999999928
21
-22.2287870000000005
0
LINE
8
BLACK
6
CONTINUOUS
10
118.8176079999999928
20
-22.2287870000000005
11
118.5210429999999917
21
-22.1324269999999999
0
LINE
8
BLACK
6
CONTINUOUS
10
118.5210429999999917
20
-22.1324269999999999
11
118.216031000000001
21
-22.0675950000000007
0
LINE
8
BLACK
6
CONTINUOUS
10
118.216031000000001
20
-22.0675950000000007
11
117.9059129999999982
21
-22.0350000000000001
0
LINE
8
BLACK
6
CONTINUOUS
10
117.9059129999999982
20
-22.0350000000000001
11
117.75
21
-22.0350000000000001
0
LINE
8
BLACK
6
CONTINUOUS
10
117.75
20
-22.0350000000000001
11
65.75
21
-22.0350000000000001
  0
ENDSEC
  0
EOF
