%TF.GenerationSoftware,KiCad,Pcbnew,9.0.8-9.0.8~ubuntu24.04.1*%
%TF.CreationDate,2026-04-19T16:55:24+02:00*%
%TF.ProjectId,ambilight_kicad,616d6269-6c69-4676-9874-5f6b69636164,rev?*%
%TF.SameCoordinates,Original*%
%TF.FileFunction,Copper,L1,Top*%
%TF.FilePolarity,Positive*%
%FSLAX46Y46*%
G04 Gerber Fmt 4.6, Leading zero omitted, Abs format (unit mm)*
G04 Created by KiCad (PCBNEW 9.0.8-9.0.8~ubuntu24.04.1) date 2026-04-19 16:55:24*
%MOMM*%
%LPD*%
G01*
G04 APERTURE LIST*
G04 Aperture macros list*
%AMRoundRect*
0 Rectangle with rounded corners*
0 $1 Rounding radius*
0 $2 $3 $4 $5 $6 $7 $8 $9 X,Y pos of 4 corners*
0 Add a 4 corners polygon primitive as box body*
4,1,4,$2,$3,$4,$5,$6,$7,$8,$9,$2,$3,0*
0 Add four circle primitives for the rounded corners*
1,1,$1+$1,$2,$3*
1,1,$1+$1,$4,$5*
1,1,$1+$1,$6,$7*
1,1,$1+$1,$8,$9*
0 Add four rect primitives between the rounded corners*
20,1,$1+$1,$2,$3,$4,$5,0*
20,1,$1+$1,$4,$5,$6,$7,0*
20,1,$1+$1,$6,$7,$8,$9,0*
20,1,$1+$1,$8,$9,$2,$3,0*%
G04 Aperture macros list end*
%TA.AperFunction,ComponentPad*%
%ADD10RoundRect,0.250000X-1.050000X1.050000X-1.050000X-1.050000X1.050000X-1.050000X1.050000X1.050000X0*%
%TD*%
%TA.AperFunction,ComponentPad*%
%ADD11C,2.600000*%
%TD*%
%TA.AperFunction,ComponentPad*%
%ADD12C,1.600000*%
%TD*%
%TA.AperFunction,ComponentPad*%
%ADD13RoundRect,0.250000X1.050000X-1.050000X1.050000X1.050000X-1.050000X1.050000X-1.050000X-1.050000X0*%
%TD*%
%TA.AperFunction,SMDPad,CuDef*%
%ADD14RoundRect,0.152400X0.609600X-1.063600X0.609600X1.063600X-0.609600X1.063600X-0.609600X-1.063600X0*%
%TD*%
%TA.AperFunction,ComponentPad*%
%ADD15C,1.524000*%
%TD*%
%TA.AperFunction,SMDPad,CuDef*%
%ADD16RoundRect,0.152400X-0.609600X1.063600X-0.609600X-1.063600X0.609600X-1.063600X0.609600X1.063600X0*%
%TD*%
%TA.AperFunction,ComponentPad*%
%ADD17RoundRect,0.250000X-0.550000X0.550000X-0.550000X-0.550000X0.550000X-0.550000X0.550000X0.550000X0*%
%TD*%
%TA.AperFunction,Conductor*%
%ADD18C,1.000000*%
%TD*%
%TA.AperFunction,Conductor*%
%ADD19C,2.500000*%
%TD*%
%TA.AperFunction,Conductor*%
%ADD20C,0.500000*%
%TD*%
G04 APERTURE END LIST*
D10*
%TO.P,J1,1,Pin_1*%
%TO.N,+5V*%
X81250000Y-48080000D03*
D11*
%TO.P,J1,2,Pin_2*%
%TO.N,chaineA_5V*%
X81250000Y-53160000D03*
%TO.P,J1,3,Pin_3*%
%TO.N,GND*%
X81250000Y-58240000D03*
%TD*%
D12*
%TO.P,C2,1*%
%TO.N,+5V*%
X98450000Y-101560000D03*
%TO.P,C2,2*%
%TO.N,GND*%
X98450000Y-99060000D03*
%TD*%
%TO.P,C3,1*%
%TO.N,+5V*%
X92750000Y-101560000D03*
%TO.P,C3,2*%
%TO.N,GND*%
X92750000Y-99060000D03*
%TD*%
D13*
%TO.P,J5,1,Pin_1*%
%TO.N,+5V*%
X102750000Y-41410000D03*
D11*
%TO.P,J5,2,Pin_2*%
%TO.N,GND*%
X102750000Y-36330000D03*
%TD*%
D10*
%TO.P,J3,1,Pin_1*%
%TO.N,+5V*%
X74350000Y-83610000D03*
D11*
%TO.P,J3,2,Pin_2*%
%TO.N,GND*%
X74350000Y-88690000D03*
%TD*%
D13*
%TO.P,J2,1,Pin_1*%
%TO.N,+5V*%
X102722500Y-58150000D03*
D11*
%TO.P,J2,2,Pin_2*%
%TO.N,chaineB_5V*%
X102722500Y-53070000D03*
%TO.P,J2,3,Pin_3*%
%TO.N,GND*%
X102722500Y-47990000D03*
%TD*%
D12*
%TO.P,R1,1*%
%TO.N,Net-(R1-Pad1)*%
X88850000Y-60240000D03*
%TO.P,R1,2*%
%TO.N,chaineA_5V*%
X88850000Y-52620000D03*
%TD*%
D10*
%TO.P,J4,1,Pin_1*%
%TO.N,+5V*%
X81250000Y-36250000D03*
D11*
%TO.P,J4,2,Pin_2*%
%TO.N,GND*%
X81250000Y-41330000D03*
%TD*%
D12*
%TO.P,R2,1*%
%TO.N,Net-(R2-Pad1)*%
X95050000Y-60140000D03*
%TO.P,R2,2*%
%TO.N,chaineB_5V*%
X95050000Y-52520000D03*
%TD*%
D14*
%TO.P,U2,1,GPIO0/A0/D0*%
%TO.N,unconnected-(U2-GPIO0{slash}A0{slash}D0-Pad1)_1*%
X100550000Y-76985000D03*
D15*
%TO.N,unconnected-(U2-GPIO0{slash}A0{slash}D0-Pad1)*%
X100550000Y-77820000D03*
D14*
%TO.P,U2,2,GPIO1/A1/D1*%
%TO.N,unconnected-(U2-GPIO1{slash}A1{slash}D1-Pad2)*%
X98010000Y-76985000D03*
D15*
%TO.N,unconnected-(U2-GPIO1{slash}A1{slash}D1-Pad2)_1*%
X98010000Y-77820000D03*
D14*
%TO.P,U2,3,GPIO2/A2/D2*%
%TO.N,chaineB*%
X95470000Y-76985000D03*
D15*
X95470000Y-77820000D03*
D14*
%TO.P,U2,4,GPIO21/D3*%
%TO.N,chaineA*%
X92930000Y-76985000D03*
D15*
X92930000Y-77820000D03*
D14*
%TO.P,U2,5,GPIO22/D4/SDA*%
%TO.N,unconnected-(U2-GPIO22{slash}D4{slash}SDA-Pad5)*%
X90390000Y-76985000D03*
D15*
%TO.N,unconnected-(U2-GPIO22{slash}D4{slash}SDA-Pad5)_1*%
X90390000Y-77820000D03*
D14*
%TO.P,U2,6,GPIO23/D5/SCL*%
%TO.N,unconnected-(U2-GPIO23{slash}D5{slash}SCL-Pad6)*%
X87850000Y-76985000D03*
D15*
%TO.N,unconnected-(U2-GPIO23{slash}D5{slash}SCL-Pad6)_1*%
X87850000Y-77820000D03*
D14*
%TO.P,U2,7,GPIO16/D6/TX*%
%TO.N,unconnected-(U2-GPIO16{slash}D6{slash}TX-Pad7)*%
X85310000Y-76985000D03*
D15*
%TO.N,unconnected-(U2-GPIO16{slash}D6{slash}TX-Pad7)_1*%
X85310000Y-77820000D03*
%TO.P,U2,8,GPIO17/D7/RX*%
%TO.N,unconnected-(U2-GPIO17{slash}D7{slash}RX-Pad8)_1*%
X85310000Y-93060000D03*
D16*
%TO.N,unconnected-(U2-GPIO17{slash}D7{slash}RX-Pad8)*%
X85310000Y-93895000D03*
D15*
%TO.P,U2,9,GPIO19/D8/SCK*%
%TO.N,unconnected-(U2-GPIO19{slash}D8{slash}SCK-Pad9)_1*%
X87850000Y-93060000D03*
D16*
%TO.N,unconnected-(U2-GPIO19{slash}D8{slash}SCK-Pad9)*%
X87850000Y-93895000D03*
D15*
%TO.P,U2,10,GPIO20/D9/MISO*%
%TO.N,unconnected-(U2-GPIO20{slash}D9{slash}MISO-Pad10)_1*%
X90390000Y-93060000D03*
D16*
%TO.N,unconnected-(U2-GPIO20{slash}D9{slash}MISO-Pad10)*%
X90390000Y-93895000D03*
D15*
%TO.P,U2,11,GPIO18/D10/MOSI*%
%TO.N,unconnected-(U2-GPIO18{slash}D10{slash}MOSI-Pad11)_1*%
X92930000Y-93060000D03*
D16*
%TO.N,unconnected-(U2-GPIO18{slash}D10{slash}MOSI-Pad11)*%
X92930000Y-93895000D03*
D15*
%TO.P,U2,12,3V3*%
%TO.N,unconnected-(U2-3V3-Pad12)_1*%
X95470000Y-93060000D03*
D16*
%TO.N,unconnected-(U2-3V3-Pad12)*%
X95470000Y-93895000D03*
D15*
%TO.P,U2,13,GND*%
%TO.N,GND*%
X98010000Y-93060000D03*
D16*
X98010000Y-93895000D03*
D15*
%TO.P,U2,14,VBUS*%
%TO.N,+5V*%
X100550000Y-93060000D03*
D16*
X100550000Y-93895000D03*
%TD*%
D12*
%TO.P,C1,1*%
%TO.N,+5V*%
X104250000Y-73610000D03*
%TO.P,C1,2*%
%TO.N,GND*%
X104250000Y-71110000D03*
%TD*%
D17*
%TO.P,U1,1*%
%TO.N,chaineA*%
X100490000Y-65910000D03*
D12*
%TO.P,U1,2*%
%TO.N,Net-(U1-Pad2)*%
X97950000Y-65910000D03*
%TO.P,U1,3*%
X95410000Y-65910000D03*
%TO.P,U1,4*%
%TO.N,Net-(R1-Pad1)*%
X92870000Y-65910000D03*
%TO.P,U1,5*%
%TO.N,GND*%
X90330000Y-65910000D03*
%TO.P,U1,6*%
%TO.N,unconnected-(U1-Pad6)*%
X87790000Y-65910000D03*
%TO.P,U1,7,GND*%
%TO.N,GND*%
X85250000Y-65910000D03*
%TO.P,U1,8*%
%TO.N,unconnected-(U1-Pad8)*%
X85250000Y-73530000D03*
%TO.P,U1,9*%
%TO.N,GND*%
X87790000Y-73530000D03*
%TO.P,U1,10*%
%TO.N,Net-(R2-Pad1)*%
X90330000Y-73530000D03*
%TO.P,U1,11*%
%TO.N,Net-(U1-Pad11)*%
X92870000Y-73530000D03*
%TO.P,U1,12*%
X95410000Y-73530000D03*
%TO.P,U1,13*%
%TO.N,chaineB*%
X97950000Y-73530000D03*
%TO.P,U1,14,VCC*%
%TO.N,+5V*%
X100490000Y-73530000D03*
%TD*%
D18*
%TO.N,Net-(R2-Pad1)*%
X90330000Y-73530000D02*
X95250000Y-68610000D01*
X95250000Y-68610000D02*
X101937486Y-68610000D01*
X101937486Y-68610000D02*
X103190000Y-67357486D01*
X103190000Y-67357486D02*
X103190000Y-64462514D01*
X103190000Y-64462514D02*
X98867486Y-60140000D01*
X98867486Y-60140000D02*
X95050000Y-60140000D01*
%TO.N,GND*%
X81250000Y-58240000D02*
X83150000Y-56340000D01*
X101990000Y-64959570D02*
X101990000Y-66860430D01*
X83150000Y-56340000D02*
X88777056Y-56340000D01*
X88777056Y-56340000D02*
X95647056Y-63210000D01*
X95647056Y-63210000D02*
X99068377Y-63210000D01*
X99068377Y-63210000D02*
X100268377Y-64410000D01*
X100268377Y-64410000D02*
X101440430Y-64410000D01*
X101440430Y-64410000D02*
X101990000Y-64959570D01*
X91830000Y-67410000D02*
X90330000Y-65910000D01*
X101990000Y-66860430D02*
X101440430Y-67410000D01*
X101440430Y-67410000D02*
X91830000Y-67410000D01*
%TO.N,chaineA*%
X88280000Y-57540000D02*
X95150000Y-64410000D01*
X97328679Y-64410000D02*
X98571321Y-64410000D01*
X97028679Y-64710000D02*
X97328679Y-64410000D01*
X85522944Y-57540000D02*
X88280000Y-57540000D01*
X96331321Y-64710000D02*
X97028679Y-64710000D01*
X84628679Y-75030000D02*
X82550000Y-72951321D01*
X96031321Y-64410000D02*
X96331321Y-64710000D01*
X82550000Y-72951321D02*
X82550000Y-60512944D01*
X91317898Y-75030000D02*
X84628679Y-75030000D01*
X95150000Y-64410000D02*
X96031321Y-64410000D01*
X82550000Y-60512944D02*
X85522944Y-57540000D01*
X92930000Y-76642102D02*
X91317898Y-75030000D01*
X92930000Y-77820000D02*
X92930000Y-76642102D01*
X98571321Y-64410000D02*
X99450000Y-65288679D01*
X99450000Y-65288679D02*
X99450000Y-65910000D01*
X99450000Y-65910000D02*
X100490000Y-65910000D01*
%TO.N,GND*%
X87790000Y-73530000D02*
X87790000Y-68450000D01*
X87790000Y-68450000D02*
X85250000Y-65910000D01*
X85250000Y-65910000D02*
X86750000Y-64410000D01*
X86750000Y-64410000D02*
X88830000Y-64410000D01*
X88830000Y-64410000D02*
X90330000Y-65910000D01*
X92750000Y-99060000D02*
X93960000Y-99060000D01*
X93960000Y-99060000D02*
X98010000Y-95010000D01*
X98010000Y-95010000D02*
X98010000Y-93895000D01*
X98010000Y-93060000D02*
X98010000Y-98620000D01*
X98010000Y-98620000D02*
X98450000Y-99060000D01*
X92750000Y-99060000D02*
X98450000Y-99060000D01*
%TO.N,chaineB_5V*%
X95050000Y-52520000D02*
X102172500Y-52520000D01*
X102172500Y-52520000D02*
X102722500Y-53070000D01*
%TO.N,Net-(U1-Pad11)*%
X92870000Y-73530000D02*
X95410000Y-73530000D01*
%TO.N,chaineA_5V*%
X81790000Y-52620000D02*
X81250000Y-53160000D01*
X88850000Y-52620000D02*
X81790000Y-52620000D01*
%TO.N,Net-(R1-Pad1)*%
X92870000Y-64260000D02*
X88850000Y-60240000D01*
X92870000Y-65910000D02*
X92870000Y-64260000D01*
%TO.N,Net-(U1-Pad2)*%
X97950000Y-65910000D02*
X95410000Y-65910000D01*
D19*
%TO.N,+5V*%
X102750000Y-41410000D02*
X109550000Y-48210000D01*
X101312000Y-94657000D02*
X100550000Y-93895000D01*
X101312000Y-99379981D02*
X101312000Y-94657000D01*
X98450000Y-101560000D02*
X99131981Y-101560000D01*
X109550000Y-51322500D02*
X102722500Y-58150000D01*
X96080000Y-48080000D02*
X102750000Y-41410000D01*
X74350000Y-83610000D02*
X74350000Y-54980000D01*
X74350000Y-54980000D02*
X81250000Y-48080000D01*
X82466558Y-96626558D02*
X87400000Y-101560000D01*
X84000000Y-45330000D02*
X81250000Y-48080000D01*
X99131981Y-101560000D02*
X101312000Y-99379981D01*
X109550000Y-48210000D02*
X109550000Y-51322500D01*
X81150000Y-90410000D02*
X81150000Y-94310000D01*
X74350000Y-83610000D02*
X97888241Y-83610000D01*
X104250000Y-73610000D02*
X100570000Y-73610000D01*
X81150000Y-94310000D02*
X82466558Y-95626558D01*
X82466558Y-95626558D02*
X82466558Y-96626558D01*
X104250000Y-77248241D02*
X104250000Y-73610000D01*
X92750000Y-101560000D02*
X98450000Y-101560000D01*
X81250000Y-36250000D02*
X84000000Y-39000000D01*
X84000000Y-39000000D02*
X84000000Y-45330000D01*
X74350000Y-83610000D02*
X81150000Y-90410000D01*
D20*
X98610000Y-101400000D02*
X98450000Y-101560000D01*
D19*
X87400000Y-101560000D02*
X92750000Y-101560000D01*
X97888241Y-83610000D02*
X104250000Y-77248241D01*
X81250000Y-48080000D02*
X96080000Y-48080000D01*
X100570000Y-73610000D02*
X100490000Y-73530000D01*
D18*
%TO.N,chaineB*%
X95470000Y-76010000D02*
X97950000Y-73530000D01*
X95470000Y-76985000D02*
X95470000Y-76010000D01*
D20*
%TO.N,GND*%
X98650000Y-98860000D02*
X98450000Y-99060000D01*
%TD*%
%TA.AperFunction,Conductor*%
%TO.N,GND*%
G36*
X99286940Y-95245389D02*
G01*
X99292787Y-95244326D01*
X99319954Y-95255533D01*
X99348047Y-95264165D01*
X99354259Y-95269685D01*
X99357376Y-95270971D01*
X99362966Y-95277422D01*
X99374430Y-95287609D01*
X99381144Y-95295556D01*
X99420408Y-95361947D01*
X99528861Y-95470400D01*
X99532221Y-95474377D01*
X99544319Y-95501770D01*
X99558666Y-95528044D01*
X99558283Y-95533388D01*
X99560449Y-95538291D01*
X99561500Y-95554402D01*
X99561500Y-98250689D01*
X99541815Y-98317728D01*
X99525181Y-98338370D01*
X98850000Y-99013551D01*
X98850000Y-99007339D01*
X98822741Y-98905606D01*
X98770080Y-98814394D01*
X98695606Y-98739920D01*
X98604394Y-98687259D01*
X98502661Y-98660000D01*
X98496446Y-98660000D01*
X99175922Y-97980524D01*
X99175921Y-97980523D01*
X99131359Y-97948147D01*
X99131350Y-97948141D01*
X98949031Y-97855244D01*
X98754417Y-97792009D01*
X98552317Y-97760000D01*
X98347683Y-97760000D01*
X98145582Y-97792009D01*
X97950968Y-97855244D01*
X97768644Y-97948143D01*
X97724077Y-97980523D01*
X97724077Y-97980524D01*
X98403554Y-98660000D01*
X98397339Y-98660000D01*
X98295606Y-98687259D01*
X98204394Y-98739920D01*
X98129920Y-98814394D01*
X98077259Y-98905606D01*
X98050000Y-99007339D01*
X98050000Y-99013553D01*
X97370524Y-98334077D01*
X97370523Y-98334077D01*
X97338143Y-98378644D01*
X97245244Y-98560968D01*
X97182009Y-98755582D01*
X97150000Y-98957682D01*
X97150000Y-99162317D01*
X97182009Y-99364417D01*
X97245245Y-99559034D01*
X97281000Y-99629206D01*
X97293896Y-99697875D01*
X97267619Y-99762615D01*
X97210513Y-99802872D01*
X97170515Y-99809500D01*
X94029485Y-99809500D01*
X93962446Y-99789815D01*
X93916691Y-99737011D01*
X93906747Y-99667853D01*
X93919000Y-99629206D01*
X93954754Y-99559034D01*
X94017990Y-99364417D01*
X94050000Y-99162317D01*
X94050000Y-98957682D01*
X94017990Y-98755582D01*
X93954755Y-98560968D01*
X93861859Y-98378650D01*
X93829474Y-98334077D01*
X93829474Y-98334076D01*
X93150000Y-99013551D01*
X93150000Y-99007339D01*
X93122741Y-98905606D01*
X93070080Y-98814394D01*
X92995606Y-98739920D01*
X92904394Y-98687259D01*
X92802661Y-98660000D01*
X92796446Y-98660000D01*
X93475922Y-97980524D01*
X93475921Y-97980523D01*
X93431359Y-97948147D01*
X93431350Y-97948141D01*
X93249031Y-97855244D01*
X93054417Y-97792009D01*
X92852317Y-97760000D01*
X92647683Y-97760000D01*
X92445582Y-97792009D01*
X92250968Y-97855244D01*
X92068644Y-97948143D01*
X92024077Y-97980523D01*
X92024077Y-97980524D01*
X92703554Y-98660000D01*
X92697339Y-98660000D01*
X92595606Y-98687259D01*
X92504394Y-98739920D01*
X92429920Y-98814394D01*
X92377259Y-98905606D01*
X92350000Y-99007339D01*
X92350000Y-99013553D01*
X91670524Y-98334077D01*
X91670523Y-98334077D01*
X91638143Y-98378644D01*
X91545244Y-98560968D01*
X91482009Y-98755582D01*
X91450000Y-98957682D01*
X91450000Y-99162317D01*
X91482009Y-99364417D01*
X91545245Y-99559034D01*
X91581000Y-99629206D01*
X91593896Y-99697875D01*
X91567619Y-99762615D01*
X91510513Y-99802872D01*
X91470515Y-99809500D01*
X88176443Y-99809500D01*
X88109404Y-99789815D01*
X88088762Y-99773181D01*
X84253377Y-95937796D01*
X84238673Y-95910868D01*
X84222081Y-95885050D01*
X84221189Y-95878849D01*
X84219892Y-95876473D01*
X84217058Y-95850115D01*
X84217058Y-95648678D01*
X84236743Y-95581639D01*
X84289547Y-95535884D01*
X84358705Y-95525940D01*
X84404175Y-95541944D01*
X84439041Y-95562564D01*
X84439044Y-95562564D01*
X84439046Y-95562566D01*
X84597447Y-95608586D01*
X84597450Y-95608586D01*
X84597452Y-95608587D01*
X84634466Y-95611500D01*
X84634474Y-95611500D01*
X85985526Y-95611500D01*
X85985534Y-95611500D01*
X86022548Y-95608587D01*
X86022550Y-95608586D01*
X86022552Y-95608586D01*
X86064323Y-95596449D01*
X86180959Y-95562564D01*
X86322947Y-95478592D01*
X86439592Y-95361947D01*
X86473268Y-95305003D01*
X86524337Y-95257321D01*
X86593079Y-95244817D01*
X86657668Y-95271462D01*
X86686732Y-95305004D01*
X86720406Y-95361944D01*
X86720412Y-95361952D01*
X86837047Y-95478587D01*
X86837051Y-95478590D01*
X86837053Y-95478592D01*
X86979041Y-95562564D01*
X86979048Y-95562566D01*
X87137447Y-95608586D01*
X87137450Y-95608586D01*
X87137452Y-95608587D01*
X87174466Y-95611500D01*
X87174474Y-95611500D01*
X88525526Y-95611500D01*
X88525534Y-95611500D01*
X88562548Y-95608587D01*
X88562550Y-95608586D01*
X88562552Y-95608586D01*
X88604323Y-95596449D01*
X88720959Y-95562564D01*
X88862947Y-95478592D01*
X88979592Y-95361947D01*
X89013268Y-95305003D01*
X89064337Y-95257321D01*
X89133079Y-95244817D01*
X89197668Y-95271462D01*
X89226732Y-95305004D01*
X89260406Y-95361944D01*
X89260412Y-95361952D01*
X89377047Y-95478587D01*
X89377051Y-95478590D01*
X89377053Y-95478592D01*
X89519041Y-95562564D01*
X89519048Y-95562566D01*
X89677447Y-95608586D01*
X89677450Y-95608586D01*
X89677452Y-95608587D01*
X89714466Y-95611500D01*
X89714474Y-95611500D01*
X91065526Y-95611500D01*
X91065534Y-95611500D01*
X91102548Y-95608587D01*
X91102550Y-95608586D01*
X91102552Y-95608586D01*
X91144323Y-95596449D01*
X91260959Y-95562564D01*
X91402947Y-95478592D01*
X91519592Y-95361947D01*
X91553268Y-95305003D01*
X91604337Y-95257321D01*
X91673079Y-95244817D01*
X91737668Y-95271462D01*
X91766732Y-95305004D01*
X91800406Y-95361944D01*
X91800412Y-95361952D01*
X91917047Y-95478587D01*
X91917051Y-95478590D01*
X91917053Y-95478592D01*
X92059041Y-95562564D01*
X92059048Y-95562566D01*
X92217447Y-95608586D01*
X92217450Y-95608586D01*
X92217452Y-95608587D01*
X92254466Y-95611500D01*
X92254474Y-95611500D01*
X93605526Y-95611500D01*
X93605534Y-95611500D01*
X93642548Y-95608587D01*
X93642550Y-95608586D01*
X93642552Y-95608586D01*
X93684323Y-95596449D01*
X93800959Y-95562564D01*
X93942947Y-95478592D01*
X94059592Y-95361947D01*
X94093268Y-95305003D01*
X94144337Y-95257321D01*
X94213079Y-95244817D01*
X94277668Y-95271462D01*
X94306732Y-95305004D01*
X94340406Y-95361944D01*
X94340412Y-95361952D01*
X94457047Y-95478587D01*
X94457051Y-95478590D01*
X94457053Y-95478592D01*
X94599041Y-95562564D01*
X94599048Y-95562566D01*
X94757447Y-95608586D01*
X94757450Y-95608586D01*
X94757452Y-95608587D01*
X94794466Y-95611500D01*
X94794474Y-95611500D01*
X96145526Y-95611500D01*
X96145534Y-95611500D01*
X96182548Y-95608587D01*
X96182550Y-95608586D01*
X96182552Y-95608586D01*
X96224323Y-95596449D01*
X96340959Y-95562564D01*
X96482947Y-95478592D01*
X96599592Y-95361947D01*
X96599776Y-95361637D01*
X96633558Y-95304514D01*
X96684626Y-95256830D01*
X96753368Y-95244326D01*
X96817958Y-95270971D01*
X96847022Y-95304513D01*
X96880803Y-95361634D01*
X96880810Y-95361643D01*
X96997356Y-95478189D01*
X96997365Y-95478196D01*
X97139243Y-95562102D01*
X97139246Y-95562103D01*
X97297526Y-95608088D01*
X97297532Y-95608089D01*
X97334518Y-95610999D01*
X98685469Y-95610999D01*
X98685491Y-95610998D01*
X98722466Y-95608089D01*
X98880757Y-95562102D01*
X99022634Y-95478196D01*
X99022643Y-95478189D01*
X99139189Y-95361643D01*
X99139193Y-95361637D01*
X99172976Y-95304514D01*
X99194457Y-95284456D01*
X99213979Y-95262489D01*
X99219700Y-95260886D01*
X99224045Y-95256830D01*
X99252960Y-95251570D01*
X99281259Y-95243644D01*
X99286940Y-95245389D01*
G37*
%TD.AperFunction*%
%TA.AperFunction,Conductor*%
G36*
X117753736Y-22510726D02*
G01*
X118043796Y-22528271D01*
X118058659Y-22530076D01*
X118340797Y-22581780D01*
X118355334Y-22585363D01*
X118629182Y-22670698D01*
X118643163Y-22676000D01*
X118904734Y-22793724D01*
X118917987Y-22800680D01*
X119163458Y-22949071D01*
X119175776Y-22957573D01*
X119401573Y-23134474D01*
X119412781Y-23144404D01*
X119615595Y-23347218D01*
X119625525Y-23358426D01*
X119802422Y-23584217D01*
X119810928Y-23596541D01*
X119959319Y-23842012D01*
X119966277Y-23855269D01*
X120083994Y-24116823D01*
X120089304Y-24130825D01*
X120174635Y-24404664D01*
X120178219Y-24419202D01*
X120229923Y-24701340D01*
X120231728Y-24716205D01*
X120249274Y-25006263D01*
X120249500Y-25013750D01*
X120249500Y-108006249D01*
X120249274Y-108013736D01*
X120231728Y-108303794D01*
X120229923Y-108318659D01*
X120178219Y-108600797D01*
X120174635Y-108615335D01*
X120089304Y-108889174D01*
X120083994Y-108903176D01*
X119966277Y-109164730D01*
X119959319Y-109177987D01*
X119810928Y-109423458D01*
X119802422Y-109435782D01*
X119625525Y-109661573D01*
X119615595Y-109672781D01*
X119412781Y-109875595D01*
X119401573Y-109885525D01*
X119175782Y-110062422D01*
X119163458Y-110070928D01*
X118917987Y-110219319D01*
X118904730Y-110226277D01*
X118643176Y-110343994D01*
X118629174Y-110349304D01*
X118355335Y-110434635D01*
X118340797Y-110438219D01*
X118058659Y-110489923D01*
X118043794Y-110491728D01*
X117753736Y-110509274D01*
X117746249Y-110509500D01*
X65753751Y-110509500D01*
X65746264Y-110509274D01*
X65456205Y-110491728D01*
X65441340Y-110489923D01*
X65159202Y-110438219D01*
X65144664Y-110434635D01*
X64870825Y-110349304D01*
X64856827Y-110343995D01*
X64704096Y-110275256D01*
X64595269Y-110226277D01*
X64582012Y-110219319D01*
X64336541Y-110070928D01*
X64324217Y-110062422D01*
X64098426Y-109885525D01*
X64087218Y-109875595D01*
X63884404Y-109672781D01*
X63874474Y-109661573D01*
X63697573Y-109435776D01*
X63689071Y-109423458D01*
X63540680Y-109177987D01*
X63533722Y-109164730D01*
X63416000Y-108903163D01*
X63410698Y-108889182D01*
X63325363Y-108615334D01*
X63321780Y-108600797D01*
X63270076Y-108318659D01*
X63268271Y-108303794D01*
X63250726Y-108013736D01*
X63250500Y-108006249D01*
X63250500Y-100588711D01*
X71799500Y-100588711D01*
X71799500Y-100831288D01*
X71831161Y-101071785D01*
X71893947Y-101306104D01*
X71986773Y-101530205D01*
X71986776Y-101530212D01*
X72108064Y-101740289D01*
X72108066Y-101740292D01*
X72108067Y-101740293D01*
X72255733Y-101932736D01*
X72255739Y-101932743D01*
X72427256Y-102104260D01*
X72427262Y-102104265D01*
X72619711Y-102251936D01*
X72829788Y-102373224D01*
X73053900Y-102466054D01*
X73288211Y-102528838D01*
X73468586Y-102552584D01*
X73528711Y-102560500D01*
X73528712Y-102560500D01*
X73771289Y-102560500D01*
X73819388Y-102554167D01*
X74011789Y-102528838D01*
X74246100Y-102466054D01*
X74470212Y-102373224D01*
X74680289Y-102251936D01*
X74872738Y-102104265D01*
X75044265Y-101932738D01*
X75191936Y-101740289D01*
X75313224Y-101530212D01*
X75406054Y-101306100D01*
X75468838Y-101071789D01*
X75500500Y-100831288D01*
X75500500Y-100588712D01*
X75468838Y-100348211D01*
X75406054Y-100113900D01*
X75313224Y-99889788D01*
X75191936Y-99679711D01*
X75131018Y-99600321D01*
X75044266Y-99487263D01*
X75044260Y-99487256D01*
X74872743Y-99315739D01*
X74872736Y-99315733D01*
X74680293Y-99168067D01*
X74680292Y-99168066D01*
X74680289Y-99168064D01*
X74470212Y-99046776D01*
X74470205Y-99046773D01*
X74246104Y-98953947D01*
X74011785Y-98891161D01*
X73771289Y-98859500D01*
X73771288Y-98859500D01*
X73528712Y-98859500D01*
X73528711Y-98859500D01*
X73288214Y-98891161D01*
X73053895Y-98953947D01*
X72829794Y-99046773D01*
X72829785Y-99046777D01*
X72619706Y-99168067D01*
X72427263Y-99315733D01*
X72427256Y-99315739D01*
X72255739Y-99487256D01*
X72255733Y-99487263D01*
X72108067Y-99679706D01*
X72108064Y-99679710D01*
X72108064Y-99679711D01*
X72097577Y-99697875D01*
X71986777Y-99889785D01*
X71986773Y-99889794D01*
X71893947Y-100113895D01*
X71831161Y-100348214D01*
X71799500Y-100588711D01*
X63250500Y-100588711D01*
X63250500Y-82509991D01*
X72549500Y-82509991D01*
X72549500Y-82519673D01*
X72549500Y-82519674D01*
X72549500Y-84710001D01*
X72549501Y-84710018D01*
X72560000Y-84812796D01*
X72560001Y-84812799D01*
X72598478Y-84928913D01*
X72615186Y-84979334D01*
X72707288Y-85128656D01*
X72831344Y-85252712D01*
X72980666Y-85344814D01*
X73147203Y-85399999D01*
X73249991Y-85410500D01*
X73623556Y-85410499D01*
X73690595Y-85430183D01*
X73711237Y-85446818D01*
X75034888Y-86770469D01*
X75068373Y-86831792D01*
X75063389Y-86901484D01*
X75021517Y-86957417D01*
X74956053Y-86981834D01*
X74915114Y-86977925D01*
X74701915Y-86920799D01*
X74467985Y-86890000D01*
X74232014Y-86890000D01*
X73998085Y-86920799D01*
X73770162Y-86981870D01*
X73552180Y-87072160D01*
X73552171Y-87072165D01*
X73347828Y-87190144D01*
X73347818Y-87190150D01*
X73266275Y-87252720D01*
X73266275Y-87252721D01*
X74102512Y-88088958D01*
X74042110Y-88113978D01*
X73935649Y-88185112D01*
X73845112Y-88275649D01*
X73773978Y-88382110D01*
X73748958Y-88442511D01*
X72912721Y-87606275D01*
X72912720Y-87606275D01*
X72850150Y-87687818D01*
X72850144Y-87687828D01*
X72732165Y-87892171D01*
X72732160Y-87892180D01*
X72641870Y-88110162D01*
X72580799Y-88338085D01*
X72550000Y-88572014D01*
X72550000Y-88807985D01*
X72580799Y-89041914D01*
X72641870Y-89269837D01*
X72732160Y-89487819D01*
X72732165Y-89487828D01*
X72850144Y-89692171D01*
X72850145Y-89692172D01*
X72912721Y-89773723D01*
X73748958Y-88937487D01*
X73773978Y-88997890D01*
X73845112Y-89104351D01*
X73935649Y-89194888D01*
X74042110Y-89266022D01*
X74102511Y-89291041D01*
X73266275Y-90127277D01*
X73347827Y-90189854D01*
X73347828Y-90189855D01*
X73552171Y-90307834D01*
X73552180Y-90307839D01*
X73770163Y-90398129D01*
X73770161Y-90398129D01*
X73998085Y-90459200D01*
X74232014Y-90489999D01*
X74232029Y-90490000D01*
X74467971Y-90490000D01*
X74467985Y-90489999D01*
X74701914Y-90459200D01*
X74929837Y-90398129D01*
X75147819Y-90307839D01*
X75147828Y-90307834D01*
X75352181Y-90189850D01*
X75433723Y-90127279D01*
X75433723Y-90127276D01*
X74597487Y-89291041D01*
X74657890Y-89266022D01*
X74764351Y-89194888D01*
X74854888Y-89104351D01*
X74926022Y-88997890D01*
X74951041Y-88937488D01*
X75787276Y-89773723D01*
X75787279Y-89773723D01*
X75849850Y-89692181D01*
X75967834Y-89487828D01*
X75967839Y-89487819D01*
X76058129Y-89269837D01*
X76119200Y-89041914D01*
X76149999Y-88807985D01*
X76150000Y-88807971D01*
X76150000Y-88572028D01*
X76149999Y-88572014D01*
X76119200Y-88338085D01*
X76062074Y-88124884D01*
X76063737Y-88055035D01*
X76102899Y-87997172D01*
X76167128Y-87969668D01*
X76236030Y-87981254D01*
X76269528Y-88005108D01*
X76540069Y-88275649D01*
X79363181Y-91098761D01*
X79396666Y-91160084D01*
X79399500Y-91186442D01*
X79399500Y-94424734D01*
X79414974Y-94542266D01*
X79414974Y-94542267D01*
X79429398Y-94651836D01*
X79429413Y-94651946D01*
X79429452Y-94652238D01*
X79482621Y-94850670D01*
X79488842Y-94873887D01*
X79576650Y-95085876D01*
X79576657Y-95085891D01*
X79691389Y-95284612D01*
X79709054Y-95307634D01*
X79709059Y-95307639D01*
X79831078Y-95466659D01*
X79831084Y-95466666D01*
X80679739Y-96315319D01*
X80713224Y-96376642D01*
X80716058Y-96403000D01*
X80716058Y-96741299D01*
X80741004Y-96930773D01*
X80746010Y-96968796D01*
X80746011Y-96968798D01*
X80805400Y-97190445D01*
X80893208Y-97402434D01*
X80893215Y-97402449D01*
X81007945Y-97601167D01*
X81007947Y-97601170D01*
X81029672Y-97629482D01*
X81147636Y-97783217D01*
X81147642Y-97783224D01*
X86243333Y-102878915D01*
X86243339Y-102878920D01*
X86334363Y-102948765D01*
X86425388Y-103018611D01*
X86565074Y-103099258D01*
X86624113Y-103133345D01*
X86748300Y-103184784D01*
X86836113Y-103221158D01*
X86874781Y-103231519D01*
X87057761Y-103280549D01*
X87261553Y-103307377D01*
X87261555Y-103307378D01*
X87261556Y-103307378D01*
X87268151Y-103308246D01*
X87285266Y-103310500D01*
X87285267Y-103310500D01*
X87285270Y-103310500D01*
X99246708Y-103310500D01*
X99246715Y-103310500D01*
X99447752Y-103284032D01*
X99447753Y-103284032D01*
X99474210Y-103280550D01*
X99474215Y-103280548D01*
X99474220Y-103280548D01*
X99695868Y-103221158D01*
X99907869Y-103133344D01*
X100106593Y-103018611D01*
X100197617Y-102948765D01*
X100288642Y-102878920D01*
X102578851Y-100588711D01*
X108199500Y-100588711D01*
X108199500Y-100831288D01*
X108231161Y-101071785D01*
X108293947Y-101306104D01*
X108386773Y-101530205D01*
X108386776Y-101530212D01*
X108508064Y-101740289D01*
X108508066Y-101740292D01*
X108508067Y-101740293D01*
X108655733Y-101932736D01*
X108655739Y-101932743D01*
X108827256Y-102104260D01*
X108827262Y-102104265D01*
X109019711Y-102251936D01*
X109229788Y-102373224D01*
X109453900Y-102466054D01*
X109688211Y-102528838D01*
X109868586Y-102552584D01*
X109928711Y-102560500D01*
X109928712Y-102560500D01*
X110171289Y-102560500D01*
X110219388Y-102554167D01*
X110411789Y-102528838D01*
X110646100Y-102466054D01*
X110870212Y-102373224D01*
X111080289Y-102251936D01*
X111272738Y-102104265D01*
X111444265Y-101932738D01*
X111591936Y-101740289D01*
X111713224Y-101530212D01*
X111806054Y-101306100D01*
X111868838Y-101071789D01*
X111900500Y-100831288D01*
X111900500Y-100588712D01*
X111868838Y-100348211D01*
X111806054Y-100113900D01*
X111713224Y-99889788D01*
X111591936Y-99679711D01*
X111531018Y-99600321D01*
X111444266Y-99487263D01*
X111444260Y-99487256D01*
X111272743Y-99315739D01*
X111272736Y-99315733D01*
X111080293Y-99168067D01*
X111080292Y-99168066D01*
X111080289Y-99168064D01*
X110870212Y-99046776D01*
X110870205Y-99046773D01*
X110646104Y-98953947D01*
X110411785Y-98891161D01*
X110171289Y-98859500D01*
X110171288Y-98859500D01*
X109928712Y-98859500D01*
X109928711Y-98859500D01*
X109688214Y-98891161D01*
X109453895Y-98953947D01*
X109229794Y-99046773D01*
X109229785Y-99046777D01*
X109019706Y-99168067D01*
X108827263Y-99315733D01*
X108827256Y-99315739D01*
X108655739Y-99487256D01*
X108655733Y-99487263D01*
X108508067Y-99679706D01*
X108508064Y-99679710D01*
X108508064Y-99679711D01*
X108497577Y-99697875D01*
X108386777Y-99889785D01*
X108386773Y-99889794D01*
X108293947Y-100113895D01*
X108231161Y-100348214D01*
X108199500Y-100588711D01*
X102578851Y-100588711D01*
X102630919Y-100536643D01*
X102738108Y-100396951D01*
X102770611Y-100354593D01*
X102885344Y-100155869D01*
X102973158Y-99943868D01*
X103001136Y-99839452D01*
X103032548Y-99722220D01*
X103038144Y-99679711D01*
X103062500Y-99494715D01*
X103062500Y-94542266D01*
X103032549Y-94314761D01*
X102973158Y-94093114D01*
X102973155Y-94093106D01*
X102885349Y-93881120D01*
X102885344Y-93881111D01*
X102827121Y-93780266D01*
X102770611Y-93682388D01*
X102723689Y-93621238D01*
X102671146Y-93552762D01*
X102671142Y-93552759D01*
X102656408Y-93533557D01*
X102630920Y-93500339D01*
X102630918Y-93500337D01*
X102630915Y-93500333D01*
X102630913Y-93500331D01*
X101811851Y-92681270D01*
X101780456Y-92628184D01*
X101763564Y-92570041D01*
X101709480Y-92478591D01*
X101679594Y-92428056D01*
X101679590Y-92428051D01*
X101679585Y-92428046D01*
X101583390Y-92331851D01*
X101570758Y-92317060D01*
X101512984Y-92237539D01*
X101372466Y-92097021D01*
X101372464Y-92097019D01*
X101211694Y-91980213D01*
X101034632Y-91889994D01*
X101034629Y-91889993D01*
X100845637Y-91828587D01*
X100747498Y-91813043D01*
X100649361Y-91797500D01*
X100450639Y-91797500D01*
X100385214Y-91807862D01*
X100254362Y-91828587D01*
X100065370Y-91889993D01*
X100065367Y-91889994D01*
X99888305Y-91980213D01*
X99727533Y-92097021D01*
X99587018Y-92237536D01*
X99529239Y-92317061D01*
X99523992Y-92323784D01*
X99520469Y-92327990D01*
X99420408Y-92428053D01*
X99381285Y-92494204D01*
X99374779Y-92501975D01*
X99353798Y-92515964D01*
X99335371Y-92533170D01*
X99325227Y-92535015D01*
X99316647Y-92540736D01*
X99291433Y-92541161D01*
X99266629Y-92545673D01*
X99257097Y-92541740D01*
X99246787Y-92541915D01*
X99225347Y-92528642D01*
X99202040Y-92519027D01*
X99193043Y-92508643D01*
X99187380Y-92505138D01*
X99184161Y-92498393D01*
X99172977Y-92485486D01*
X99139195Y-92428364D01*
X99139192Y-92428360D01*
X99067191Y-92356360D01*
X98447647Y-92975904D01*
X98424208Y-92888429D01*
X98365689Y-92787070D01*
X98282930Y-92704311D01*
X98181571Y-92645792D01*
X98094094Y-92622352D01*
X98708716Y-92007731D01*
X98708715Y-92007730D01*
X98671432Y-91980641D01*
X98494437Y-91890457D01*
X98305522Y-91829075D01*
X98109321Y-91798000D01*
X97910679Y-91798000D01*
X97714479Y-91829075D01*
X97714476Y-91829075D01*
X97525562Y-91890457D01*
X97348564Y-91980643D01*
X97311283Y-92007729D01*
X97311282Y-92007730D01*
X97925906Y-92622352D01*
X97838429Y-92645792D01*
X97737070Y-92704311D01*
X97654311Y-92787070D01*
X97595792Y-92888429D01*
X97572352Y-92975905D01*
X96952807Y-92356360D01*
X96880810Y-92428357D01*
X96880800Y-92428370D01*
X96847021Y-92485487D01*
X96795952Y-92533170D01*
X96727210Y-92545673D01*
X96662621Y-92519027D01*
X96645220Y-92501975D01*
X96638716Y-92494208D01*
X96599592Y-92428053D01*
X96499518Y-92327979D01*
X96496007Y-92323786D01*
X96495489Y-92322600D01*
X96490758Y-92317060D01*
X96432984Y-92237539D01*
X96292466Y-92097021D01*
X96292464Y-92097019D01*
X96131694Y-91980213D01*
X95954632Y-91889994D01*
X95954629Y-91889993D01*
X95765637Y-91828587D01*
X95667498Y-91813043D01*
X95569361Y-91797500D01*
X95370639Y-91797500D01*
X95305214Y-91807862D01*
X95174362Y-91828587D01*
X94985370Y-91889993D01*
X94985367Y-91889994D01*
X94808305Y-91980213D01*
X94647533Y-92097021D01*
X94507018Y-92237536D01*
X94449239Y-92317061D01*
X94443960Y-92323821D01*
X94440446Y-92328013D01*
X94340408Y-92428053D01*
X94301564Y-92493733D01*
X94295038Y-92501521D01*
X94274076Y-92515485D01*
X94255662Y-92532679D01*
X94245492Y-92534528D01*
X94236891Y-92540259D01*
X94211703Y-92540674D01*
X94186921Y-92545182D01*
X94177366Y-92541240D01*
X94167031Y-92541411D01*
X94145616Y-92528142D01*
X94122331Y-92518536D01*
X94113308Y-92508123D01*
X94107638Y-92504610D01*
X94104426Y-92497873D01*
X94093268Y-92484996D01*
X94059592Y-92428053D01*
X93963390Y-92331851D01*
X93950758Y-92317060D01*
X93892984Y-92237539D01*
X93752466Y-92097021D01*
X93752464Y-92097019D01*
X93591694Y-91980213D01*
X93414632Y-91889994D01*
X93414629Y-91889993D01*
X93225637Y-91828587D01*
X93127498Y-91813043D01*
X93029361Y-91797500D01*
X92830639Y-91797500D01*
X92765214Y-91807862D01*
X92634362Y-91828587D01*
X92445370Y-91889993D01*
X92445367Y-91889994D01*
X92268305Y-91980213D01*
X92107533Y-92097021D01*
X91967018Y-92237536D01*
X91909239Y-92317061D01*
X91903960Y-92323821D01*
X91900446Y-92328013D01*
X91800408Y-92428053D01*
X91761564Y-92493733D01*
X91755038Y-92501521D01*
X91734076Y-92515485D01*
X91715662Y-92532679D01*
X91705492Y-92534528D01*
X91696891Y-92540259D01*
X91671703Y-92540674D01*
X91646921Y-92545182D01*
X91637366Y-92541240D01*
X91627031Y-92541411D01*
X91605616Y-92528142D01*
X91582331Y-92518536D01*
X91573308Y-92508123D01*
X91567638Y-92504610D01*
X91564426Y-92497873D01*
X91553268Y-92484996D01*
X91519592Y-92428053D01*
X91423390Y-92331851D01*
X91410758Y-92317060D01*
X91352984Y-92237539D01*
X91212466Y-92097021D01*
X91212464Y-92097019D01*
X91051694Y-91980213D01*
X90874632Y-91889994D01*
X90874629Y-91889993D01*
X90685637Y-91828587D01*
X90587498Y-91813043D01*
X90489361Y-91797500D01*
X90290639Y-91797500D01*
X90225214Y-91807862D01*
X90094362Y-91828587D01*
X89905370Y-91889993D01*
X89905367Y-91889994D01*
X89728305Y-91980213D01*
X89567533Y-92097021D01*
X89427018Y-92237536D01*
X89369239Y-92317061D01*
X89363960Y-92323821D01*
X89360446Y-92328013D01*
X89260408Y-92428053D01*
X89221564Y-92493733D01*
X89215038Y-92501521D01*
X89194076Y-92515485D01*
X89175662Y-92532679D01*
X89165492Y-92534528D01*
X89156891Y-92540259D01*
X89131703Y-92540674D01*
X89106921Y-92545182D01*
X89097366Y-92541240D01*
X89087031Y-92541411D01*
X89065616Y-92528142D01*
X89042331Y-92518536D01*
X89033308Y-92508123D01*
X89027638Y-92504610D01*
X89024426Y-92497873D01*
X89013268Y-92484996D01*
X88979592Y-92428053D01*
X88883390Y-92331851D01*
X88870758Y-92317060D01*
X88812984Y-92237539D01*
X88672466Y-92097021D01*
X88672464Y-92097019D01*
X88511694Y-91980213D01*
X88334632Y-91889994D01*
X88334629Y-91889993D01*
X88145637Y-91828587D01*
X88047498Y-91813043D01*
X87949361Y-91797500D01*
X87750639Y-91797500D01*
X87685214Y-91807862D01*
X87554362Y-91828587D01*
X87365370Y-91889993D01*
X87365367Y-91889994D01*
X87188305Y-91980213D01*
X87027533Y-92097021D01*
X86887018Y-92237536D01*
X86829239Y-92317061D01*
X86823960Y-92323821D01*
X86820446Y-92328013D01*
X86720408Y-92428053D01*
X86681564Y-92493733D01*
X86675038Y-92501521D01*
X86654076Y-92515485D01*
X86635662Y-92532679D01*
X86625492Y-92534528D01*
X86616891Y-92540259D01*
X86591703Y-92540674D01*
X86566921Y-92545182D01*
X86557366Y-92541240D01*
X86547031Y-92541411D01*
X86525616Y-92528142D01*
X86502331Y-92518536D01*
X86493308Y-92508123D01*
X86487638Y-92504610D01*
X86484426Y-92497873D01*
X86473268Y-92484996D01*
X86439592Y-92428053D01*
X86343390Y-92331851D01*
X86330758Y-92317060D01*
X86272984Y-92237539D01*
X86132466Y-92097021D01*
X86132464Y-92097019D01*
X85971694Y-91980213D01*
X85794632Y-91889994D01*
X85794629Y-91889993D01*
X85605637Y-91828587D01*
X85507498Y-91813043D01*
X85409361Y-91797500D01*
X85210639Y-91797500D01*
X85145214Y-91807862D01*
X85014362Y-91828587D01*
X84825370Y-91889993D01*
X84825367Y-91889994D01*
X84648305Y-91980213D01*
X84487533Y-92097021D01*
X84347018Y-92237536D01*
X84289239Y-92317061D01*
X84276604Y-92331854D01*
X84180413Y-92428046D01*
X84180405Y-92428056D01*
X84096435Y-92570042D01*
X84096434Y-92570045D01*
X84050413Y-92728447D01*
X84050412Y-92728453D01*
X84047500Y-92765458D01*
X84047500Y-94446079D01*
X84027815Y-94513118D01*
X83975011Y-94558873D01*
X83905853Y-94568817D01*
X83842297Y-94539792D01*
X83825125Y-94521567D01*
X83818642Y-94513118D01*
X83785477Y-94469897D01*
X83623219Y-94307639D01*
X82936819Y-93621238D01*
X82903334Y-93559915D01*
X82900500Y-93533557D01*
X82900500Y-90295272D01*
X82900499Y-90295258D01*
X82886621Y-90189850D01*
X82870548Y-90067762D01*
X82811158Y-89846113D01*
X82723344Y-89634112D01*
X82608611Y-89435388D01*
X82608608Y-89435385D01*
X82608607Y-89435382D01*
X82468918Y-89253338D01*
X82410468Y-89194888D01*
X82306661Y-89091081D01*
X80821855Y-87606275D01*
X78787762Y-85572181D01*
X78754277Y-85510858D01*
X78759261Y-85441166D01*
X78801133Y-85385233D01*
X78866597Y-85360816D01*
X78875443Y-85360500D01*
X98002968Y-85360500D01*
X98002975Y-85360500D01*
X98204012Y-85334032D01*
X98204013Y-85334032D01*
X98230470Y-85330550D01*
X98230475Y-85330548D01*
X98230480Y-85330548D01*
X98452128Y-85271158D01*
X98664129Y-85183344D01*
X98862853Y-85068611D01*
X98953877Y-84998765D01*
X99044902Y-84928920D01*
X105568920Y-78404902D01*
X105645859Y-78304632D01*
X105708611Y-78222853D01*
X105782054Y-78095646D01*
X105823345Y-78024129D01*
X105911158Y-77812127D01*
X105970549Y-77590480D01*
X106000500Y-77362975D01*
X106000500Y-77133507D01*
X106000500Y-73495266D01*
X105970548Y-73267762D01*
X105911158Y-73046113D01*
X105829367Y-72848652D01*
X105823349Y-72834123D01*
X105823346Y-72834117D01*
X105823344Y-72834112D01*
X105708611Y-72635388D01*
X105708608Y-72635385D01*
X105708607Y-72635382D01*
X105568918Y-72453338D01*
X105568911Y-72453330D01*
X105406670Y-72291089D01*
X105406661Y-72291081D01*
X105224617Y-72151392D01*
X105025890Y-72036657D01*
X105025881Y-72036653D01*
X104813887Y-71948842D01*
X104738612Y-71928672D01*
X104683025Y-71896578D01*
X104296446Y-71510000D01*
X104302661Y-71510000D01*
X104404394Y-71482741D01*
X104495606Y-71430080D01*
X104570080Y-71355606D01*
X104622741Y-71264394D01*
X104650000Y-71162661D01*
X104650000Y-71156447D01*
X105329474Y-71835921D01*
X105361859Y-71791349D01*
X105454755Y-71609031D01*
X105517990Y-71414417D01*
X105550000Y-71212317D01*
X105550000Y-71007682D01*
X105517990Y-70805582D01*
X105454755Y-70610968D01*
X105361859Y-70428650D01*
X105329474Y-70384077D01*
X105329474Y-70384076D01*
X104650000Y-71063551D01*
X104650000Y-71057339D01*
X104622741Y-70955606D01*
X104570080Y-70864394D01*
X104495606Y-70789920D01*
X104404394Y-70737259D01*
X104302661Y-70710000D01*
X104296446Y-70710000D01*
X104975922Y-70030524D01*
X104975921Y-70030523D01*
X104931359Y-69998147D01*
X104931350Y-69998141D01*
X104749031Y-69905244D01*
X104554417Y-69842009D01*
X104352317Y-69810000D01*
X104147683Y-69810000D01*
X103945582Y-69842009D01*
X103750968Y-69905244D01*
X103568644Y-69998143D01*
X103524077Y-70030523D01*
X103524077Y-70030524D01*
X104203554Y-70710000D01*
X104197339Y-70710000D01*
X104095606Y-70737259D01*
X104004394Y-70789920D01*
X103929920Y-70864394D01*
X103877259Y-70955606D01*
X103850000Y-71057339D01*
X103850000Y-71063553D01*
X103170524Y-70384077D01*
X103170523Y-70384077D01*
X103138143Y-70428644D01*
X103045244Y-70610968D01*
X102982009Y-70805582D01*
X102950000Y-71007682D01*
X102950000Y-71212317D01*
X102982009Y-71414417D01*
X103045245Y-71609034D01*
X103081000Y-71679206D01*
X103093896Y-71747875D01*
X103067619Y-71812615D01*
X103010513Y-71852872D01*
X102970515Y-71859500D01*
X101035347Y-71859500D01*
X101003254Y-71855275D01*
X100931023Y-71835921D01*
X100832239Y-71809452D01*
X100832233Y-71809451D01*
X100832228Y-71809450D01*
X100604735Y-71779501D01*
X100604734Y-71779501D01*
X100375266Y-71779501D01*
X100375265Y-71779501D01*
X100147771Y-71809450D01*
X100147764Y-71809451D01*
X100147761Y-71809452D01*
X100054077Y-71834554D01*
X99926112Y-71868842D01*
X99714120Y-71956651D01*
X99714111Y-71956656D01*
X99515388Y-72071390D01*
X99515378Y-72071396D01*
X99333340Y-72211078D01*
X99333333Y-72211084D01*
X99171084Y-72373333D01*
X99171078Y-72373340D01*
X99031396Y-72555378D01*
X99029137Y-72558761D01*
X99027696Y-72557798D01*
X98982232Y-72601126D01*
X98913622Y-72614330D01*
X98848764Y-72588345D01*
X98837761Y-72578576D01*
X98797213Y-72538028D01*
X98631613Y-72417715D01*
X98631612Y-72417714D01*
X98631610Y-72417713D01*
X98574653Y-72388691D01*
X98449223Y-72324781D01*
X98254534Y-72261522D01*
X98066690Y-72231771D01*
X98052352Y-72229500D01*
X97847648Y-72229500D01*
X97833310Y-72231771D01*
X97645465Y-72261522D01*
X97450776Y-72324781D01*
X97268386Y-72417715D01*
X97102786Y-72538028D01*
X96958028Y-72682786D01*
X96837715Y-72848386D01*
X96790485Y-72941080D01*
X96742510Y-72991876D01*
X96674689Y-73008671D01*
X96608554Y-72986134D01*
X96569515Y-72941080D01*
X96563754Y-72929773D01*
X96522287Y-72848390D01*
X96490092Y-72804077D01*
X96401971Y-72682786D01*
X96257213Y-72538028D01*
X96091613Y-72417715D01*
X96091612Y-72417714D01*
X96091610Y-72417713D01*
X96034653Y-72388691D01*
X95909223Y-72324781D01*
X95714534Y-72261522D01*
X95526690Y-72231771D01*
X95512352Y-72229500D01*
X95307648Y-72229500D01*
X95293310Y-72231771D01*
X95105465Y-72261522D01*
X94910776Y-72324781D01*
X94728386Y-72417715D01*
X94607123Y-72505818D01*
X94541317Y-72529298D01*
X94534238Y-72529500D01*
X93745762Y-72529500D01*
X93678723Y-72509815D01*
X93672877Y-72505818D01*
X93551613Y-72417715D01*
X93551612Y-72417714D01*
X93551610Y-72417713D01*
X93369219Y-72324780D01*
X93245358Y-72284535D01*
X93187682Y-72245097D01*
X93160484Y-72180739D01*
X93172399Y-72111892D01*
X93195992Y-72078926D01*
X95628102Y-69646819D01*
X95689425Y-69613334D01*
X95715783Y-69610500D01*
X102036028Y-69610500D01*
X102067052Y-69604328D01*
X102132674Y-69591275D01*
X102229322Y-69572051D01*
X102282651Y-69549961D01*
X102411400Y-69496632D01*
X102575268Y-69387139D01*
X102714625Y-69247782D01*
X102714625Y-69247780D01*
X102724833Y-69237573D01*
X102724834Y-69237570D01*
X103967139Y-67995268D01*
X103982540Y-67972219D01*
X104076632Y-67831400D01*
X104152051Y-67649321D01*
X104190500Y-67456027D01*
X104190500Y-64363973D01*
X104190500Y-64363970D01*
X104190499Y-64363968D01*
X104152053Y-64170689D01*
X104152052Y-64170688D01*
X104152051Y-64170679D01*
X104148232Y-64161460D01*
X104111267Y-64072218D01*
X104092833Y-64027713D01*
X104076635Y-63988606D01*
X104076633Y-63988602D01*
X104076632Y-63988600D01*
X104076628Y-63988594D01*
X103967139Y-63824731D01*
X103824686Y-63682278D01*
X103824655Y-63682249D01*
X99648965Y-59506559D01*
X99648945Y-59506537D01*
X99505271Y-59362863D01*
X99505267Y-59362860D01*
X99341406Y-59253371D01*
X99341397Y-59253366D01*
X99268801Y-59223296D01*
X99212651Y-59200038D01*
X99159322Y-59177949D01*
X99159318Y-59177948D01*
X99159314Y-59177946D01*
X99062674Y-59158724D01*
X98966030Y-59139500D01*
X98966027Y-59139500D01*
X95925762Y-59139500D01*
X95858723Y-59119815D01*
X95852877Y-59115818D01*
X95731613Y-59027715D01*
X95731612Y-59027714D01*
X95731610Y-59027713D01*
X95674653Y-58998691D01*
X95549223Y-58934781D01*
X95354534Y-58871522D01*
X95179995Y-58843878D01*
X95152352Y-58839500D01*
X94947648Y-58839500D01*
X94923329Y-58843351D01*
X94745465Y-58871522D01*
X94550776Y-58934781D01*
X94368386Y-59027715D01*
X94202786Y-59148028D01*
X94058028Y-59292786D01*
X93937715Y-59458386D01*
X93844781Y-59640776D01*
X93781522Y-59835465D01*
X93749500Y-60037648D01*
X93749500Y-60242350D01*
X93781522Y-60444534D01*
X93844781Y-60639223D01*
X93937715Y-60821613D01*
X94058028Y-60987213D01*
X94202786Y-61131971D01*
X94340420Y-61231966D01*
X94368390Y-61252287D01*
X94484607Y-61311503D01*
X94550776Y-61345218D01*
X94550778Y-61345218D01*
X94550781Y-61345220D01*
X94655137Y-61379127D01*
X94745465Y-61408477D01*
X94846557Y-61424488D01*
X94947648Y-61440500D01*
X94947649Y-61440500D01*
X95152351Y-61440500D01*
X95152352Y-61440500D01*
X95354534Y-61408477D01*
X95549219Y-61345220D01*
X95731610Y-61252287D01*
X95852877Y-61164181D01*
X95918683Y-61140702D01*
X95925762Y-61140500D01*
X98401704Y-61140500D01*
X98468743Y-61160185D01*
X98489385Y-61176819D01*
X102153181Y-64840615D01*
X102186666Y-64901938D01*
X102189500Y-64928296D01*
X102189500Y-66891703D01*
X102169815Y-66958742D01*
X102153181Y-66979384D01*
X101559385Y-67573181D01*
X101498062Y-67606666D01*
X101471704Y-67609500D01*
X95151455Y-67609500D01*
X95054812Y-67628724D01*
X94958167Y-67647947D01*
X94958161Y-67647949D01*
X94904834Y-67670037D01*
X94904834Y-67670038D01*
X94861918Y-67687814D01*
X94776084Y-67723368D01*
X94776083Y-67723368D01*
X94653045Y-67805579D01*
X94653046Y-67805580D01*
X94612218Y-67832859D01*
X94612215Y-67832862D01*
X90241797Y-72203281D01*
X90180474Y-72236766D01*
X90173515Y-72238073D01*
X90025468Y-72261522D01*
X89830778Y-72324781D01*
X89648386Y-72417715D01*
X89482786Y-72538028D01*
X89338028Y-72682786D01*
X89217713Y-72848388D01*
X89170203Y-72941630D01*
X89122228Y-72992426D01*
X89054407Y-73009220D01*
X88988272Y-72986682D01*
X88949234Y-72941628D01*
X88901861Y-72848652D01*
X88869474Y-72804077D01*
X88869474Y-72804076D01*
X88190000Y-73483551D01*
X88190000Y-73477339D01*
X88162741Y-73375606D01*
X88110080Y-73284394D01*
X88035606Y-73209920D01*
X87944394Y-73157259D01*
X87842661Y-73130000D01*
X87836446Y-73130000D01*
X88515922Y-72450524D01*
X88515921Y-72450523D01*
X88471359Y-72418147D01*
X88471350Y-72418141D01*
X88289031Y-72325244D01*
X88094417Y-72262009D01*
X87892317Y-72230000D01*
X87687683Y-72230000D01*
X87485582Y-72262009D01*
X87290968Y-72325244D01*
X87108644Y-72418143D01*
X87064077Y-72450523D01*
X87064077Y-72450524D01*
X87743554Y-73130000D01*
X87737339Y-73130000D01*
X87635606Y-73157259D01*
X87544394Y-73209920D01*
X87469920Y-73284394D01*
X87417259Y-73375606D01*
X87390000Y-73477339D01*
X87390000Y-73483553D01*
X86710524Y-72804077D01*
X86710523Y-72804077D01*
X86678143Y-72848644D01*
X86630765Y-72941630D01*
X86582790Y-72992426D01*
X86514969Y-73009221D01*
X86448834Y-72986683D01*
X86409795Y-72941630D01*
X86403754Y-72929773D01*
X86362287Y-72848390D01*
X86362285Y-72848387D01*
X86362284Y-72848385D01*
X86241971Y-72682786D01*
X86097213Y-72538028D01*
X85931613Y-72417715D01*
X85931612Y-72417714D01*
X85931610Y-72417713D01*
X85874653Y-72388691D01*
X85749223Y-72324781D01*
X85554534Y-72261522D01*
X85366690Y-72231771D01*
X85352352Y-72229500D01*
X85147648Y-72229500D01*
X85133310Y-72231771D01*
X84945465Y-72261522D01*
X84750776Y-72324781D01*
X84568386Y-72417715D01*
X84402786Y-72538028D01*
X84258028Y-72682786D01*
X84137713Y-72848388D01*
X84122127Y-72878978D01*
X84074153Y-72929773D01*
X84006332Y-72946568D01*
X83940197Y-72924030D01*
X83923962Y-72910363D01*
X83586819Y-72573220D01*
X83553334Y-72511897D01*
X83550500Y-72485539D01*
X83550500Y-60978726D01*
X83570185Y-60911687D01*
X83586819Y-60891045D01*
X85901046Y-58576819D01*
X85962369Y-58543334D01*
X85988727Y-58540500D01*
X87814218Y-58540500D01*
X87881257Y-58560185D01*
X87901899Y-58576819D01*
X88236112Y-58911032D01*
X88269597Y-58972355D01*
X88264613Y-59042047D01*
X88222741Y-59097980D01*
X88204728Y-59109197D01*
X88168386Y-59127714D01*
X88002786Y-59248028D01*
X87858028Y-59392786D01*
X87737715Y-59558386D01*
X87644781Y-59740776D01*
X87581522Y-59935465D01*
X87549500Y-60137648D01*
X87549500Y-60342351D01*
X87581522Y-60544534D01*
X87644781Y-60739223D01*
X87686760Y-60821610D01*
X87722139Y-60891045D01*
X87737715Y-60921613D01*
X87858028Y-61087213D01*
X88002786Y-61231971D01*
X88157749Y-61344556D01*
X88168390Y-61352287D01*
X88278669Y-61408477D01*
X88350776Y-61445218D01*
X88350778Y-61445218D01*
X88350781Y-61445220D01*
X88455137Y-61479127D01*
X88545465Y-61508477D01*
X88622966Y-61520751D01*
X88693513Y-61531925D01*
X88756648Y-61561854D01*
X88761797Y-61566717D01*
X91833181Y-64638101D01*
X91866666Y-64699424D01*
X91869500Y-64725782D01*
X91869500Y-65034237D01*
X91849815Y-65101276D01*
X91845818Y-65107122D01*
X91757713Y-65228388D01*
X91710203Y-65321630D01*
X91662228Y-65372426D01*
X91594407Y-65389220D01*
X91528272Y-65366682D01*
X91489234Y-65321628D01*
X91441861Y-65228652D01*
X91409474Y-65184077D01*
X91409474Y-65184076D01*
X90730000Y-65863551D01*
X90730000Y-65857339D01*
X90702741Y-65755606D01*
X90650080Y-65664394D01*
X90575606Y-65589920D01*
X90484394Y-65537259D01*
X90382661Y-65510000D01*
X90376446Y-65510000D01*
X91055922Y-64830524D01*
X91055921Y-64830523D01*
X91011359Y-64798147D01*
X91011350Y-64798141D01*
X90829031Y-64705244D01*
X90634417Y-64642009D01*
X90432317Y-64610000D01*
X90227683Y-64610000D01*
X90025582Y-64642009D01*
X89830968Y-64705244D01*
X89648644Y-64798143D01*
X89604077Y-64830523D01*
X89604077Y-64830524D01*
X90283554Y-65510000D01*
X90277339Y-65510000D01*
X90175606Y-65537259D01*
X90084394Y-65589920D01*
X90009920Y-65664394D01*
X89957259Y-65755606D01*
X89930000Y-65857339D01*
X89930000Y-65863553D01*
X89250524Y-65184077D01*
X89250523Y-65184077D01*
X89218143Y-65228644D01*
X89170765Y-65321630D01*
X89122790Y-65372426D01*
X89054969Y-65389221D01*
X88988834Y-65366683D01*
X88949795Y-65321630D01*
X88902416Y-65228644D01*
X88902287Y-65228390D01*
X88902285Y-65228387D01*
X88902284Y-65228385D01*
X88781971Y-65062786D01*
X88637213Y-64918028D01*
X88471613Y-64797715D01*
X88471612Y-64797714D01*
X88471610Y-64797713D01*
X88391905Y-64757101D01*
X88289223Y-64704781D01*
X88094534Y-64641522D01*
X87919995Y-64613878D01*
X87892352Y-64609500D01*
X87687648Y-64609500D01*
X87663329Y-64613351D01*
X87485465Y-64641522D01*
X87290776Y-64704781D01*
X87108386Y-64797715D01*
X86942786Y-64918028D01*
X86798028Y-65062786D01*
X86677713Y-65228388D01*
X86630203Y-65321630D01*
X86582228Y-65372426D01*
X86514407Y-65389220D01*
X86448272Y-65366682D01*
X86409234Y-65321628D01*
X86361861Y-65228652D01*
X86329474Y-65184077D01*
X86329474Y-65184076D01*
X85650000Y-65863551D01*
X85650000Y-65857339D01*
X85622741Y-65755606D01*
X85570080Y-65664394D01*
X85495606Y-65589920D01*
X85404394Y-65537259D01*
X85302661Y-65510000D01*
X85296446Y-65510000D01*
X85975922Y-64830524D01*
X85975921Y-64830523D01*
X85931359Y-64798147D01*
X85931350Y-64798141D01*
X85749031Y-64705244D01*
X85554417Y-64642009D01*
X85352317Y-64610000D01*
X85147683Y-64610000D01*
X84945582Y-64642009D01*
X84750968Y-64705244D01*
X84568644Y-64798143D01*
X84524077Y-64830523D01*
X84524077Y-64830524D01*
X85203554Y-65510000D01*
X85197339Y-65510000D01*
X85095606Y-65537259D01*
X85004394Y-65589920D01*
X84929920Y-65664394D01*
X84877259Y-65755606D01*
X84850000Y-65857339D01*
X84850000Y-65863553D01*
X84170524Y-65184077D01*
X84170523Y-65184077D01*
X84138143Y-65228644D01*
X84045244Y-65410968D01*
X83982009Y-65605582D01*
X83950000Y-65807682D01*
X83950000Y-66012317D01*
X83982009Y-66214417D01*
X84045244Y-66409031D01*
X84138141Y-66591350D01*
X84138147Y-66591359D01*
X84170523Y-66635921D01*
X84170524Y-66635922D01*
X84850000Y-65956446D01*
X84850000Y-65962661D01*
X84877259Y-66064394D01*
X84929920Y-66155606D01*
X85004394Y-66230080D01*
X85095606Y-66282741D01*
X85197339Y-66310000D01*
X85203553Y-66310000D01*
X84524076Y-66989474D01*
X84568650Y-67021859D01*
X84750968Y-67114755D01*
X84945582Y-67177990D01*
X85147683Y-67210000D01*
X85352317Y-67210000D01*
X85554417Y-67177990D01*
X85749031Y-67114755D01*
X85931349Y-67021859D01*
X85975921Y-66989474D01*
X85296447Y-66310000D01*
X85302661Y-66310000D01*
X85404394Y-66282741D01*
X85495606Y-66230080D01*
X85570080Y-66155606D01*
X85622741Y-66064394D01*
X85650000Y-65962661D01*
X85650000Y-65956448D01*
X86329474Y-66635922D01*
X86329474Y-66635921D01*
X86361861Y-66591347D01*
X86361861Y-66591346D01*
X86409234Y-66498371D01*
X86457208Y-66447575D01*
X86525028Y-66430779D01*
X86591164Y-66453316D01*
X86630203Y-66498369D01*
X86677713Y-66591611D01*
X86798028Y-66757213D01*
X86942786Y-66901971D01*
X87063226Y-66989474D01*
X87108390Y-67022287D01*
X87224607Y-67081503D01*
X87290776Y-67115218D01*
X87290778Y-67115218D01*
X87290781Y-67115220D01*
X87381856Y-67144812D01*
X87485465Y-67178477D01*
X87586557Y-67194488D01*
X87687648Y-67210500D01*
X87687649Y-67210500D01*
X87892351Y-67210500D01*
X87892352Y-67210500D01*
X88094534Y-67178477D01*
X88289219Y-67115220D01*
X88471610Y-67022287D01*
X88600482Y-66928657D01*
X88637213Y-66901971D01*
X88637215Y-66901968D01*
X88637219Y-66901966D01*
X88781966Y-66757219D01*
X88781968Y-66757215D01*
X88781971Y-66757213D01*
X88902286Y-66591611D01*
X88902415Y-66591359D01*
X88949795Y-66498369D01*
X88997769Y-66447573D01*
X89065590Y-66430778D01*
X89131725Y-66453315D01*
X89170765Y-66498369D01*
X89218141Y-66591350D01*
X89218147Y-66591359D01*
X89250523Y-66635921D01*
X89250524Y-66635922D01*
X89930000Y-65956446D01*
X89930000Y-65962661D01*
X89957259Y-66064394D01*
X90009920Y-66155606D01*
X90084394Y-66230080D01*
X90175606Y-66282741D01*
X90277339Y-66310000D01*
X90283553Y-66310000D01*
X89604076Y-66989474D01*
X89648650Y-67021859D01*
X89830968Y-67114755D01*
X90025582Y-67177990D01*
X90227683Y-67210000D01*
X90432317Y-67210000D01*
X90634417Y-67177990D01*
X90829031Y-67114755D01*
X91011349Y-67021859D01*
X91055921Y-66989474D01*
X90376447Y-66310000D01*
X90382661Y-66310000D01*
X90484394Y-66282741D01*
X90575606Y-66230080D01*
X90650080Y-66155606D01*
X90702741Y-66064394D01*
X90730000Y-65962661D01*
X90730000Y-65956447D01*
X91409474Y-66635921D01*
X91441861Y-66591347D01*
X91441861Y-66591346D01*
X91489234Y-66498371D01*
X91537208Y-66447575D01*
X91605028Y-66430779D01*
X91671164Y-66453316D01*
X91710203Y-66498369D01*
X91757713Y-66591611D01*
X91878028Y-66757213D01*
X92022786Y-66901971D01*
X92143226Y-66989474D01*
X92188390Y-67022287D01*
X92304607Y-67081503D01*
X92370776Y-67115218D01*
X92370778Y-67115218D01*
X92370781Y-67115220D01*
X92461856Y-67144812D01*
X92565465Y-67178477D01*
X92666557Y-67194488D01*
X92767648Y-67210500D01*
X92767649Y-67210500D01*
X92972351Y-67210500D01*
X92972352Y-67210500D01*
X93174534Y-67178477D01*
X93369219Y-67115220D01*
X93551610Y-67022287D01*
X93680482Y-66928657D01*
X93717213Y-66901971D01*
X93717215Y-66901968D01*
X93717219Y-66901966D01*
X93861966Y-66757219D01*
X93861968Y-66757215D01*
X93861971Y-66757213D01*
X93982284Y-66591614D01*
X93982286Y-66591611D01*
X93982287Y-66591610D01*
X94029516Y-66498917D01*
X94077489Y-66448123D01*
X94145310Y-66431328D01*
X94211445Y-66453865D01*
X94250483Y-66498917D01*
X94256139Y-66510016D01*
X94297715Y-66591614D01*
X94418028Y-66757213D01*
X94562786Y-66901971D01*
X94683226Y-66989474D01*
X94728390Y-67022287D01*
X94844607Y-67081503D01*
X94910776Y-67115218D01*
X94910778Y-67115218D01*
X94910781Y-67115220D01*
X95001856Y-67144812D01*
X95105465Y-67178477D01*
X95206557Y-67194488D01*
X95307648Y-67210500D01*
X95307649Y-67210500D01*
X95512351Y-67210500D01*
X95512352Y-67210500D01*
X95714534Y-67178477D01*
X95909219Y-67115220D01*
X96091610Y-67022287D01*
X96212877Y-66934181D01*
X96278683Y-66910702D01*
X96285762Y-66910500D01*
X97074238Y-66910500D01*
X97141277Y-66930185D01*
X97147119Y-66934179D01*
X97268390Y-67022287D01*
X97384607Y-67081503D01*
X97450776Y-67115218D01*
X97450778Y-67115218D01*
X97450781Y-67115220D01*
X97541856Y-67144812D01*
X97645465Y-67178477D01*
X97746557Y-67194488D01*
X97847648Y-67210500D01*
X97847649Y-67210500D01*
X98052351Y-67210500D01*
X98052352Y-67210500D01*
X98254534Y-67178477D01*
X98449219Y-67115220D01*
X98631610Y-67022287D01*
X98797219Y-66901966D01*
X98865505Y-66833679D01*
X98926825Y-66800196D01*
X98996517Y-66805180D01*
X99000636Y-66806801D01*
X99158165Y-66872051D01*
X99286694Y-66897617D01*
X99348605Y-66930001D01*
X99350184Y-66931552D01*
X99471344Y-67052712D01*
X99620666Y-67144814D01*
X99787203Y-67199999D01*
X99889991Y-67210500D01*
X101090008Y-67210499D01*
X101192797Y-67199999D01*
X101359334Y-67144814D01*
X101508656Y-67052712D01*
X101632712Y-66928656D01*
X101724814Y-66779334D01*
X101779999Y-66612797D01*
X101790500Y-66510009D01*
X101790499Y-65309992D01*
X101779999Y-65207203D01*
X101724814Y-65040666D01*
X101632712Y-64891344D01*
X101508656Y-64767288D01*
X101359334Y-64675186D01*
X101192797Y-64620001D01*
X101192795Y-64620000D01*
X101090016Y-64609500D01*
X101090009Y-64609500D01*
X100237104Y-64609500D01*
X100170065Y-64589815D01*
X100149423Y-64573181D01*
X99355530Y-63779289D01*
X99355527Y-63779285D01*
X99355527Y-63779286D01*
X99348460Y-63772219D01*
X99348460Y-63772218D01*
X99209103Y-63632861D01*
X99209102Y-63632860D01*
X99209101Y-63632859D01*
X99045241Y-63523371D01*
X99045232Y-63523366D01*
X98972636Y-63493296D01*
X98916486Y-63470038D01*
X98863157Y-63447949D01*
X98863153Y-63447948D01*
X98863149Y-63447946D01*
X98766509Y-63428724D01*
X98669865Y-63409500D01*
X98669862Y-63409500D01*
X97230138Y-63409500D01*
X97230134Y-63409500D01*
X97133491Y-63428724D01*
X97036846Y-63447947D01*
X97036840Y-63447949D01*
X96983513Y-63470037D01*
X96983513Y-63470038D01*
X96937994Y-63488892D01*
X96854768Y-63523366D01*
X96854758Y-63523371D01*
X96748891Y-63594110D01*
X96682213Y-63614988D01*
X96614833Y-63596503D01*
X96611109Y-63594110D01*
X96505241Y-63523371D01*
X96505232Y-63523366D01*
X96432636Y-63493296D01*
X96376486Y-63470038D01*
X96323157Y-63447949D01*
X96323153Y-63447948D01*
X96323149Y-63447946D01*
X96226509Y-63428724D01*
X96129865Y-63409500D01*
X96129862Y-63409500D01*
X95615782Y-63409500D01*
X95548743Y-63389815D01*
X95528101Y-63373181D01*
X89061479Y-56906559D01*
X89061459Y-56906537D01*
X88917785Y-56762863D01*
X88917781Y-56762860D01*
X88753920Y-56653371D01*
X88753911Y-56653366D01*
X88678572Y-56622160D01*
X88625165Y-56600038D01*
X88571836Y-56577949D01*
X88571832Y-56577948D01*
X88571828Y-56577946D01*
X88475188Y-56558724D01*
X88378544Y-56539500D01*
X88378541Y-56539500D01*
X85424403Y-56539500D01*
X85424399Y-56539500D01*
X85327756Y-56558724D01*
X85231111Y-56577947D01*
X85231105Y-56577949D01*
X85177778Y-56600037D01*
X85177778Y-56600038D01*
X85132259Y-56618892D01*
X85049033Y-56653366D01*
X85049023Y-56653371D01*
X84933595Y-56730499D01*
X84933594Y-56730500D01*
X84885160Y-56762861D01*
X84885159Y-56762862D01*
X83261681Y-58386341D01*
X83200358Y-58419826D01*
X83130666Y-58414842D01*
X83074733Y-58372970D01*
X83050316Y-58307506D01*
X83050000Y-58298660D01*
X83050000Y-58122028D01*
X83049999Y-58122014D01*
X83019200Y-57888085D01*
X82958129Y-57660162D01*
X82867839Y-57442180D01*
X82867834Y-57442171D01*
X82749855Y-57237828D01*
X82749854Y-57237827D01*
X82687277Y-57156275D01*
X81851041Y-57992511D01*
X81826022Y-57932110D01*
X81754888Y-57825649D01*
X81664351Y-57735112D01*
X81557890Y-57663978D01*
X81497488Y-57638958D01*
X82333723Y-56802721D01*
X82252172Y-56740145D01*
X82252171Y-56740144D01*
X82047828Y-56622165D01*
X82047819Y-56622160D01*
X81829836Y-56531870D01*
X81829838Y-56531870D01*
X81601914Y-56470799D01*
X81367985Y-56440000D01*
X81132014Y-56440000D01*
X80898085Y-56470799D01*
X80670162Y-56531870D01*
X80452180Y-56622160D01*
X80452171Y-56622165D01*
X80247828Y-56740144D01*
X80247818Y-56740150D01*
X80166275Y-56802720D01*
X80166275Y-56802721D01*
X81002512Y-57638958D01*
X80942110Y-57663978D01*
X80835649Y-57735112D01*
X80745112Y-57825649D01*
X80673978Y-57932110D01*
X80648958Y-57992511D01*
X79812721Y-57156275D01*
X79812720Y-57156275D01*
X79750150Y-57237818D01*
X79750144Y-57237828D01*
X79632165Y-57442171D01*
X79632160Y-57442180D01*
X79541870Y-57660162D01*
X79480799Y-57888085D01*
X79450000Y-58122014D01*
X79450000Y-58357985D01*
X79480799Y-58591914D01*
X79541870Y-58819837D01*
X79632160Y-59037819D01*
X79632165Y-59037828D01*
X79750144Y-59242171D01*
X79750145Y-59242172D01*
X79812721Y-59323723D01*
X80648958Y-58487487D01*
X80673978Y-58547890D01*
X80745112Y-58654351D01*
X80835649Y-58744888D01*
X80942110Y-58816022D01*
X81002511Y-58841041D01*
X80166275Y-59677277D01*
X80247827Y-59739854D01*
X80247828Y-59739855D01*
X80452171Y-59857834D01*
X80452180Y-59857839D01*
X80670163Y-59948129D01*
X80670161Y-59948129D01*
X80898085Y-60009200D01*
X81132014Y-60039999D01*
X81132029Y-60040000D01*
X81367971Y-60040000D01*
X81367985Y-60039999D01*
X81467043Y-60026957D01*
X81467207Y-60026982D01*
X81467362Y-60026915D01*
X81501700Y-60032361D01*
X81536078Y-60037722D01*
X81536203Y-60037833D01*
X81536369Y-60037860D01*
X81562334Y-60061025D01*
X81588334Y-60084102D01*
X81588379Y-60084262D01*
X81588505Y-60084375D01*
X81597857Y-60118024D01*
X81607220Y-60151370D01*
X81607186Y-60151584D01*
X81607216Y-60151692D01*
X81607020Y-60152639D01*
X81601688Y-60186551D01*
X81599989Y-60192040D01*
X81587949Y-60221108D01*
X81583723Y-60242352D01*
X81582466Y-60248666D01*
X81582465Y-60248673D01*
X81549500Y-60414399D01*
X81549500Y-73049863D01*
X81587947Y-73243150D01*
X81587950Y-73243160D01*
X81598141Y-73267763D01*
X81663364Y-73425228D01*
X81663371Y-73425241D01*
X81772860Y-73589102D01*
X81772863Y-73589106D01*
X81916537Y-73732780D01*
X81916559Y-73732800D01*
X83851537Y-75667778D01*
X83851540Y-75667782D01*
X83990897Y-75807139D01*
X84001921Y-75814505D01*
X84010121Y-75822510D01*
X84021841Y-75843373D01*
X84037191Y-75861737D01*
X84040156Y-75875977D01*
X84044341Y-75883426D01*
X84043756Y-75893261D01*
X84047500Y-75911238D01*
X84047500Y-78114541D01*
X84050412Y-78151546D01*
X84050413Y-78151552D01*
X84096434Y-78309954D01*
X84096435Y-78309957D01*
X84180405Y-78451943D01*
X84180406Y-78451944D01*
X84180408Y-78451947D01*
X84276608Y-78548147D01*
X84289240Y-78562938D01*
X84347019Y-78642464D01*
X84487536Y-78782981D01*
X84648306Y-78899787D01*
X84735149Y-78944035D01*
X84825367Y-78990005D01*
X84825370Y-78990006D01*
X84909297Y-79017275D01*
X85014364Y-79051413D01*
X85210639Y-79082500D01*
X85210640Y-79082500D01*
X85409360Y-79082500D01*
X85409361Y-79082500D01*
X85605636Y-79051413D01*
X85794632Y-78990005D01*
X85971694Y-78899787D01*
X86132464Y-78782981D01*
X86272981Y-78642464D01*
X86330762Y-78562933D01*
X86336039Y-78556175D01*
X86339537Y-78552000D01*
X86439592Y-78451947D01*
X86478439Y-78386259D01*
X86484962Y-78378477D01*
X86505927Y-78364509D01*
X86524337Y-78347321D01*
X86534505Y-78345471D01*
X86543110Y-78339739D01*
X86568299Y-78339324D01*
X86593079Y-78334817D01*
X86602634Y-78338759D01*
X86612970Y-78338589D01*
X86634379Y-78351854D01*
X86657668Y-78361462D01*
X86666691Y-78371875D01*
X86672363Y-78375390D01*
X86675575Y-78382128D01*
X86686731Y-78395003D01*
X86702927Y-78422389D01*
X86720405Y-78451943D01*
X86720408Y-78451947D01*
X86816608Y-78548147D01*
X86829240Y-78562938D01*
X86887019Y-78642464D01*
X87027536Y-78782981D01*
X87188306Y-78899787D01*
X87275149Y-78944035D01*
X87365367Y-78990005D01*
X87365370Y-78990006D01*
X87449297Y-79017275D01*
X87554364Y-79051413D01*
X87750639Y-79082500D01*
X87750640Y-79082500D01*
X87949360Y-79082500D01*
X87949361Y-79082500D01*
X88145636Y-79051413D01*
X88334632Y-78990005D01*
X88511694Y-78899787D01*
X88672464Y-78782981D01*
X88812981Y-78642464D01*
X88870762Y-78562933D01*
X88876039Y-78556175D01*
X88879537Y-78552000D01*
X88979592Y-78451947D01*
X89018439Y-78386259D01*
X89024962Y-78378477D01*
X89045927Y-78364509D01*
X89064337Y-78347321D01*
X89074505Y-78345471D01*
X89083110Y-78339739D01*
X89108299Y-78339324D01*
X89133079Y-78334817D01*
X89142634Y-78338759D01*
X89152970Y-78338589D01*
X89174379Y-78351854D01*
X89197668Y-78361462D01*
X89206691Y-78371875D01*
X89212363Y-78375390D01*
X89215575Y-78382128D01*
X89226731Y-78395003D01*
X89242927Y-78422389D01*
X89260405Y-78451943D01*
X89260408Y-78451947D01*
X89356608Y-78548147D01*
X89369240Y-78562938D01*
X89427019Y-78642464D01*
X89567536Y-78782981D01*
X89728306Y-78899787D01*
X89815149Y-78944035D01*
X89905367Y-78990005D01*
X89905370Y-78990006D01*
X89989297Y-79017275D01*
X90094364Y-79051413D01*
X90290639Y-79082500D01*
X90290640Y-79082500D01*
X90489360Y-79082500D01*
X90489361Y-79082500D01*
X90685636Y-79051413D01*
X90874632Y-78990005D01*
X91051694Y-78899787D01*
X91212464Y-78782981D01*
X91352981Y-78642464D01*
X91410762Y-78562933D01*
X91416039Y-78556175D01*
X91419537Y-78552000D01*
X91519592Y-78451947D01*
X91558439Y-78386259D01*
X91564962Y-78378477D01*
X91585927Y-78364509D01*
X91604337Y-78347321D01*
X91614505Y-78345471D01*
X91623110Y-78339739D01*
X91648299Y-78339324D01*
X91673079Y-78334817D01*
X91682634Y-78338759D01*
X91692970Y-78338589D01*
X91714379Y-78351854D01*
X91737668Y-78361462D01*
X91746691Y-78371875D01*
X91752363Y-78375390D01*
X91755575Y-78382128D01*
X91766731Y-78395003D01*
X91782927Y-78422389D01*
X91800405Y-78451943D01*
X91800408Y-78451947D01*
X91896608Y-78548147D01*
X91909240Y-78562938D01*
X91967019Y-78642464D01*
X92107536Y-78782981D01*
X92268306Y-78899787D01*
X92355149Y-78944035D01*
X92445367Y-78990005D01*
X92445370Y-78990006D01*
X92529297Y-79017275D01*
X92634364Y-79051413D01*
X92830639Y-79082500D01*
X92830640Y-79082500D01*
X93029360Y-79082500D01*
X93029361Y-79082500D01*
X93225636Y-79051413D01*
X93414632Y-78990005D01*
X93591694Y-78899787D01*
X93752464Y-78782981D01*
X93892981Y-78642464D01*
X93950762Y-78562933D01*
X93956039Y-78556175D01*
X93959537Y-78552000D01*
X94059592Y-78451947D01*
X94098439Y-78386259D01*
X94104962Y-78378477D01*
X94125927Y-78364509D01*
X94144337Y-78347321D01*
X94154505Y-78345471D01*
X94163110Y-78339739D01*
X94188299Y-78339324D01*
X94213079Y-78334817D01*
X94222634Y-78338759D01*
X94232970Y-78338589D01*
X94254379Y-78351854D01*
X94277668Y-78361462D01*
X94286691Y-78371875D01*
X94292363Y-78375390D01*
X94295575Y-78382128D01*
X94306731Y-78395003D01*
X94322927Y-78422389D01*
X94340405Y-78451943D01*
X94340408Y-78451947D01*
X94436608Y-78548147D01*
X94449240Y-78562938D01*
X94507019Y-78642464D01*
X94647536Y-78782981D01*
X94808306Y-78899787D01*
X94895149Y-78944035D01*
X94985367Y-78990005D01*
X94985370Y-78990006D01*
X95069297Y-79017275D01*
X95174364Y-79051413D01*
X95370639Y-79082500D01*
X95370640Y-79082500D01*
X95569360Y-79082500D01*
X95569361Y-79082500D01*
X95765636Y-79051413D01*
X95954632Y-78990005D01*
X96131694Y-78899787D01*
X96292464Y-78782981D01*
X96432981Y-78642464D01*
X96490762Y-78562933D01*
X96496039Y-78556175D01*
X96499537Y-78552000D01*
X96599592Y-78451947D01*
X96638439Y-78386259D01*
X96644962Y-78378477D01*
X96665927Y-78364509D01*
X96684337Y-78347321D01*
X96694505Y-78345471D01*
X96703110Y-78339739D01*
X96728299Y-78339324D01*
X96753079Y-78334817D01*
X96762634Y-78338759D01*
X96772970Y-78338589D01*
X96794379Y-78351854D01*
X96817668Y-78361462D01*
X96826691Y-78371875D01*
X96832363Y-78375390D01*
X96835575Y-78382128D01*
X96846731Y-78395003D01*
X96862927Y-78422389D01*
X96880405Y-78451943D01*
X96880408Y-78451947D01*
X96976608Y-78548147D01*
X96989240Y-78562938D01*
X97047019Y-78642464D01*
X97187536Y-78782981D01*
X97348306Y-78899787D01*
X97435149Y-78944035D01*
X97525367Y-78990005D01*
X97525370Y-78990006D01*
X97609297Y-79017275D01*
X97714364Y-79051413D01*
X97910639Y-79082500D01*
X97910640Y-79082500D01*
X98109360Y-79082500D01*
X98109361Y-79082500D01*
X98305636Y-79051413D01*
X98494632Y-78990005D01*
X98671694Y-78899787D01*
X98832464Y-78782981D01*
X98972981Y-78642464D01*
X99030762Y-78562933D01*
X99036039Y-78556175D01*
X99039537Y-78552000D01*
X99139592Y-78451947D01*
X99178439Y-78386259D01*
X99184962Y-78378477D01*
X99205927Y-78364509D01*
X99224337Y-78347321D01*
X99234505Y-78345471D01*
X99243110Y-78339739D01*
X99268299Y-78339324D01*
X99293079Y-78334817D01*
X99302634Y-78338759D01*
X99312970Y-78338589D01*
X99334379Y-78351854D01*
X99357668Y-78361462D01*
X99366691Y-78371875D01*
X99372363Y-78375390D01*
X99375575Y-78382128D01*
X99386731Y-78395003D01*
X99402927Y-78422389D01*
X99420405Y-78451943D01*
X99420408Y-78451947D01*
X99516608Y-78548147D01*
X99529240Y-78562938D01*
X99587019Y-78642464D01*
X99727536Y-78782981D01*
X99888306Y-78899787D01*
X99891627Y-78901479D01*
X99942423Y-78949454D01*
X99959218Y-79017275D01*
X99936681Y-79083410D01*
X99923013Y-79099645D01*
X97199479Y-81823181D01*
X97138156Y-81856666D01*
X97111798Y-81859500D01*
X76224500Y-81859500D01*
X76157461Y-81839815D01*
X76111706Y-81787011D01*
X76100500Y-81735500D01*
X76100500Y-55756442D01*
X76120185Y-55689403D01*
X76136814Y-55668766D01*
X79329764Y-52475816D01*
X79391084Y-52442333D01*
X79460776Y-52447317D01*
X79516709Y-52489189D01*
X79541126Y-52554653D01*
X79537217Y-52595592D01*
X79480306Y-52807987D01*
X79449501Y-53041979D01*
X79449500Y-53041995D01*
X79449500Y-53278004D01*
X79449501Y-53278020D01*
X79480300Y-53511966D01*
X79480307Y-53512014D01*
X79518016Y-53652745D01*
X79541394Y-53739993D01*
X79631714Y-53958045D01*
X79631719Y-53958056D01*
X79659047Y-54005388D01*
X79749727Y-54162450D01*
X79749729Y-54162453D01*
X79749730Y-54162454D01*
X79893406Y-54349697D01*
X79893412Y-54349704D01*
X80060295Y-54516587D01*
X80060302Y-54516593D01*
X80170306Y-54601001D01*
X80247550Y-54660273D01*
X80378918Y-54736118D01*
X80451943Y-54778280D01*
X80451948Y-54778282D01*
X80451951Y-54778284D01*
X80670007Y-54868606D01*
X80897986Y-54929693D01*
X81131989Y-54960500D01*
X81131996Y-54960500D01*
X81368004Y-54960500D01*
X81368011Y-54960500D01*
X81602014Y-54929693D01*
X81829993Y-54868606D01*
X82048049Y-54778284D01*
X82252450Y-54660273D01*
X82439699Y-54516592D01*
X82606592Y-54349699D01*
X82750273Y-54162450D01*
X82868284Y-53958049D01*
X82958606Y-53739993D01*
X82960754Y-53731975D01*
X82965999Y-53712405D01*
X83002364Y-53652745D01*
X83065212Y-53622217D01*
X83085773Y-53620500D01*
X87974238Y-53620500D01*
X88041277Y-53640185D01*
X88047119Y-53644179D01*
X88168390Y-53732287D01*
X88267294Y-53782681D01*
X88350776Y-53825218D01*
X88350778Y-53825218D01*
X88350781Y-53825220D01*
X88455137Y-53859127D01*
X88545465Y-53888477D01*
X88646557Y-53904488D01*
X88747648Y-53920500D01*
X88747649Y-53920500D01*
X88952351Y-53920500D01*
X88952352Y-53920500D01*
X89154534Y-53888477D01*
X89349219Y-53825220D01*
X89531610Y-53732287D01*
X89658379Y-53640185D01*
X89697213Y-53611971D01*
X89697215Y-53611968D01*
X89697219Y-53611966D01*
X89841966Y-53467219D01*
X89841968Y-53467215D01*
X89841971Y-53467213D01*
X89894732Y-53394590D01*
X89962287Y-53301610D01*
X90055220Y-53119219D01*
X90118477Y-52924534D01*
X90150500Y-52722352D01*
X90150500Y-52517648D01*
X90143875Y-52475818D01*
X90118477Y-52315465D01*
X90055218Y-52120776D01*
X89978546Y-51970301D01*
X89962287Y-51938390D01*
X89954556Y-51927749D01*
X89841971Y-51772786D01*
X89697213Y-51628028D01*
X89531613Y-51507715D01*
X89531612Y-51507714D01*
X89531610Y-51507713D01*
X89474653Y-51478691D01*
X89349223Y-51414781D01*
X89154534Y-51351522D01*
X88979995Y-51323878D01*
X88952352Y-51319500D01*
X88747648Y-51319500D01*
X88723329Y-51323351D01*
X88545465Y-51351522D01*
X88350776Y-51414781D01*
X88168386Y-51507715D01*
X88047123Y-51595818D01*
X87981317Y-51619298D01*
X87974238Y-51619500D01*
X82216000Y-51619500D01*
X82154000Y-51602887D01*
X82141756Y-51595818D01*
X82048049Y-51541716D01*
X82015003Y-51528028D01*
X81829993Y-51451394D01*
X81666974Y-51407713D01*
X81602014Y-51390307D01*
X81602013Y-51390306D01*
X81602010Y-51390306D01*
X81368020Y-51359501D01*
X81368017Y-51359500D01*
X81368011Y-51359500D01*
X81131989Y-51359500D01*
X81131983Y-51359500D01*
X81131979Y-51359501D01*
X80897987Y-51390306D01*
X80685592Y-51447218D01*
X80615743Y-51445555D01*
X80557880Y-51406393D01*
X80530376Y-51342164D01*
X80541962Y-51273262D01*
X80565818Y-51239762D01*
X81888762Y-49916818D01*
X81950085Y-49883333D01*
X81976443Y-49880499D01*
X82350002Y-49880499D01*
X82350008Y-49880499D01*
X82452797Y-49869999D01*
X82553003Y-49836794D01*
X82592007Y-49830500D01*
X96194727Y-49830500D01*
X96194734Y-49830500D01*
X96395771Y-49804032D01*
X96395772Y-49804032D01*
X96422229Y-49800550D01*
X96422234Y-49800548D01*
X96422239Y-49800548D01*
X96643887Y-49741158D01*
X96855888Y-49653344D01*
X97054612Y-49538611D01*
X97145636Y-49468765D01*
X97236661Y-49398920D01*
X97236668Y-49398913D01*
X97343938Y-49291644D01*
X98763567Y-47872014D01*
X100922500Y-47872014D01*
X100922500Y-48107985D01*
X100953299Y-48341914D01*
X101014370Y-48569837D01*
X101104660Y-48787819D01*
X101104665Y-48787828D01*
X101222644Y-48992171D01*
X101222645Y-48992172D01*
X101285221Y-49073723D01*
X102121458Y-48237487D01*
X102146478Y-48297890D01*
X102217612Y-48404351D01*
X102308149Y-48494888D01*
X102414610Y-48566022D01*
X102475011Y-48591041D01*
X101638775Y-49427277D01*
X101720327Y-49489854D01*
X101720328Y-49489855D01*
X101924671Y-49607834D01*
X101924680Y-49607839D01*
X102142663Y-49698129D01*
X102142661Y-49698129D01*
X102370585Y-49759200D01*
X102604514Y-49789999D01*
X102604529Y-49790000D01*
X102840471Y-49790000D01*
X102840485Y-49789999D01*
X103074414Y-49759200D01*
X103302337Y-49698129D01*
X103520319Y-49607839D01*
X103520328Y-49607834D01*
X103724681Y-49489850D01*
X103806223Y-49427279D01*
X103806223Y-49427276D01*
X102969987Y-48591041D01*
X103030390Y-48566022D01*
X103136851Y-48494888D01*
X103227388Y-48404351D01*
X103298522Y-48297890D01*
X103323541Y-48237487D01*
X104159776Y-49073723D01*
X104159779Y-49073723D01*
X104222350Y-48992181D01*
X104340334Y-48787828D01*
X104340339Y-48787819D01*
X104430629Y-48569837D01*
X104491700Y-48341914D01*
X104522499Y-48107985D01*
X104522500Y-48107971D01*
X104522500Y-47872028D01*
X104522499Y-47872014D01*
X104491700Y-47638085D01*
X104430629Y-47410162D01*
X104340339Y-47192180D01*
X104340334Y-47192171D01*
X104222355Y-46987828D01*
X104222354Y-46987827D01*
X104159777Y-46906275D01*
X103323541Y-47742511D01*
X103298522Y-47682110D01*
X103227388Y-47575649D01*
X103136851Y-47485112D01*
X103030390Y-47413978D01*
X102969988Y-47388958D01*
X103806223Y-46552721D01*
X103724672Y-46490145D01*
X103724671Y-46490144D01*
X103520328Y-46372165D01*
X103520319Y-46372160D01*
X103302336Y-46281870D01*
X103302338Y-46281870D01*
X103074414Y-46220799D01*
X102840485Y-46190000D01*
X102604514Y-46190000D01*
X102370585Y-46220799D01*
X102142662Y-46281870D01*
X101924680Y-46372160D01*
X101924671Y-46372165D01*
X101720328Y-46490144D01*
X101720318Y-46490150D01*
X101638775Y-46552720D01*
X101638775Y-46552721D01*
X102475012Y-47388958D01*
X102414610Y-47413978D01*
X102308149Y-47485112D01*
X102217612Y-47575649D01*
X102146478Y-47682110D01*
X102121458Y-47742511D01*
X101285221Y-46906275D01*
X101285220Y-46906275D01*
X101222650Y-46987818D01*
X101222644Y-46987828D01*
X101104665Y-47192171D01*
X101104660Y-47192180D01*
X101014370Y-47410162D01*
X100953299Y-47638085D01*
X100922500Y-47872014D01*
X98763567Y-47872014D01*
X98855299Y-47780282D01*
X100122588Y-46512993D01*
X102662319Y-43973261D01*
X102723642Y-43939776D01*
X102793334Y-43944760D01*
X102837681Y-43973261D01*
X107763181Y-48898761D01*
X107796666Y-48960084D01*
X107799500Y-48986442D01*
X107799500Y-50546056D01*
X107779815Y-50613095D01*
X107763181Y-50633737D01*
X104642738Y-53754180D01*
X104581415Y-53787665D01*
X104511723Y-53782681D01*
X104455790Y-53740809D01*
X104431373Y-53675345D01*
X104435281Y-53634409D01*
X104492193Y-53422014D01*
X104523000Y-53188011D01*
X104523000Y-52951989D01*
X104492193Y-52717986D01*
X104431106Y-52490007D01*
X104340784Y-52271951D01*
X104340782Y-52271948D01*
X104340780Y-52271943D01*
X104298618Y-52198918D01*
X104222773Y-52067550D01*
X104123662Y-51938386D01*
X104079093Y-51880302D01*
X104079087Y-51880295D01*
X103912204Y-51713412D01*
X103912197Y-51713406D01*
X103724954Y-51569730D01*
X103724953Y-51569729D01*
X103724950Y-51569727D01*
X103603859Y-51499815D01*
X103520556Y-51451719D01*
X103520545Y-51451714D01*
X103302493Y-51361394D01*
X103146143Y-51319500D01*
X103074514Y-51300307D01*
X103074513Y-51300306D01*
X103074510Y-51300306D01*
X102840520Y-51269501D01*
X102840517Y-51269500D01*
X102840511Y-51269500D01*
X102604489Y-51269500D01*
X102604483Y-51269500D01*
X102604479Y-51269501D01*
X102370489Y-51300306D01*
X102142506Y-51361394D01*
X101924454Y-51451714D01*
X101924443Y-51451719D01*
X101835820Y-51502887D01*
X101773820Y-51519500D01*
X95925762Y-51519500D01*
X95858723Y-51499815D01*
X95852877Y-51495818D01*
X95731613Y-51407715D01*
X95731612Y-51407714D01*
X95731610Y-51407713D01*
X95674653Y-51378691D01*
X95549223Y-51314781D01*
X95354534Y-51251522D01*
X95179995Y-51223878D01*
X95152352Y-51219500D01*
X94947648Y-51219500D01*
X94923329Y-51223351D01*
X94745465Y-51251522D01*
X94550776Y-51314781D01*
X94368386Y-51407715D01*
X94202786Y-51528028D01*
X94058028Y-51672786D01*
X93937715Y-51838386D01*
X93844781Y-52020776D01*
X93781522Y-52215465D01*
X93749500Y-52417648D01*
X93749500Y-52622351D01*
X93781522Y-52824534D01*
X93844781Y-53019223D01*
X93908691Y-53144653D01*
X93930780Y-53188004D01*
X93937715Y-53201613D01*
X94058028Y-53367213D01*
X94202786Y-53511971D01*
X94340420Y-53611966D01*
X94368390Y-53632287D01*
X94452896Y-53675345D01*
X94550776Y-53725218D01*
X94550778Y-53725218D01*
X94550781Y-53725220D01*
X94639911Y-53754180D01*
X94745465Y-53788477D01*
X94846557Y-53804488D01*
X94947648Y-53820500D01*
X94947649Y-53820500D01*
X95152351Y-53820500D01*
X95152352Y-53820500D01*
X95354534Y-53788477D01*
X95549219Y-53725220D01*
X95731610Y-53632287D01*
X95852877Y-53544181D01*
X95918683Y-53520702D01*
X95925762Y-53520500D01*
X100884048Y-53520500D01*
X100951087Y-53540185D01*
X100996842Y-53592989D01*
X101003823Y-53612407D01*
X101013893Y-53649991D01*
X101104214Y-53868045D01*
X101104219Y-53868056D01*
X101175177Y-53990957D01*
X101222227Y-54072450D01*
X101222229Y-54072453D01*
X101222230Y-54072454D01*
X101365906Y-54259697D01*
X101365912Y-54259704D01*
X101532795Y-54426587D01*
X101532801Y-54426592D01*
X101720050Y-54570273D01*
X101836958Y-54637770D01*
X101924443Y-54688280D01*
X101924448Y-54688282D01*
X101924451Y-54688284D01*
X102142507Y-54778606D01*
X102370486Y-54839693D01*
X102604489Y-54870500D01*
X102604496Y-54870500D01*
X102840504Y-54870500D01*
X102840511Y-54870500D01*
X103074514Y-54839693D01*
X103286907Y-54782782D01*
X103356754Y-54784445D01*
X103414617Y-54823607D01*
X103442121Y-54887835D01*
X103430535Y-54956738D01*
X103406679Y-54990238D01*
X102083736Y-56313181D01*
X102022413Y-56346666D01*
X101996055Y-56349500D01*
X101622498Y-56349500D01*
X101622480Y-56349501D01*
X101519703Y-56360000D01*
X101519700Y-56360001D01*
X101353168Y-56415185D01*
X101353163Y-56415187D01*
X101203842Y-56507289D01*
X101079789Y-56631342D01*
X100987687Y-56780663D01*
X100987685Y-56780668D01*
X100959849Y-56864670D01*
X100932501Y-56947203D01*
X100932501Y-56947204D01*
X100932500Y-56947204D01*
X100922000Y-57049983D01*
X100922000Y-59250001D01*
X100922001Y-59250018D01*
X100932500Y-59352796D01*
X100932501Y-59352799D01*
X100945750Y-59392781D01*
X100987686Y-59519334D01*
X101079788Y-59668656D01*
X101203844Y-59792712D01*
X101353166Y-59884814D01*
X101519703Y-59939999D01*
X101622491Y-59950500D01*
X103822508Y-59950499D01*
X103925297Y-59939999D01*
X104091834Y-59884814D01*
X104241156Y-59792712D01*
X104365212Y-59668656D01*
X104457314Y-59519334D01*
X104512499Y-59352797D01*
X104523000Y-59250009D01*
X104522999Y-58876441D01*
X104542683Y-58809403D01*
X104559313Y-58788766D01*
X110868920Y-52479161D01*
X110958858Y-52361951D01*
X111008611Y-52297112D01*
X111123344Y-52098388D01*
X111211158Y-51886387D01*
X111252159Y-51733368D01*
X111270548Y-51664739D01*
X111276504Y-51619500D01*
X111300500Y-51437234D01*
X111300500Y-48095266D01*
X111270548Y-47867762D01*
X111211158Y-47646113D01*
X111144469Y-47485112D01*
X111123349Y-47434123D01*
X111123346Y-47434117D01*
X111123344Y-47434112D01*
X111008611Y-47235388D01*
X111008608Y-47235385D01*
X111008607Y-47235382D01*
X110868918Y-47053338D01*
X110795563Y-46979983D01*
X110706661Y-46891081D01*
X104586818Y-40771237D01*
X104553333Y-40709914D01*
X104550499Y-40683556D01*
X104550499Y-40309998D01*
X104550498Y-40309981D01*
X104539999Y-40207203D01*
X104539998Y-40207200D01*
X104484814Y-40040666D01*
X104392712Y-39891344D01*
X104268656Y-39767288D01*
X104119334Y-39675186D01*
X103952797Y-39620001D01*
X103952795Y-39620000D01*
X103850010Y-39609500D01*
X101649998Y-39609500D01*
X101649981Y-39609501D01*
X101547203Y-39620000D01*
X101547200Y-39620001D01*
X101380668Y-39675185D01*
X101380663Y-39675187D01*
X101231342Y-39767289D01*
X101107289Y-39891342D01*
X101015187Y-40040663D01*
X101015186Y-40040666D01*
X100960001Y-40207203D01*
X100960001Y-40207204D01*
X100960000Y-40207204D01*
X100949500Y-40309983D01*
X100949500Y-40683556D01*
X100929815Y-40750595D01*
X100913181Y-40771237D01*
X95391238Y-46293181D01*
X95329915Y-46326666D01*
X95303557Y-46329500D01*
X85659016Y-46329500D01*
X85591977Y-46309815D01*
X85546222Y-46257011D01*
X85536278Y-46187853D01*
X85551629Y-46143501D01*
X85573338Y-46105898D01*
X85573344Y-46105888D01*
X85661158Y-45893887D01*
X85720548Y-45672238D01*
X85750500Y-45444734D01*
X85750500Y-38885266D01*
X85720548Y-38657762D01*
X85661158Y-38436113D01*
X85573344Y-38224112D01*
X85458611Y-38025388D01*
X85458608Y-38025385D01*
X85458607Y-38025382D01*
X85318918Y-37843338D01*
X85318911Y-37843330D01*
X85282592Y-37807011D01*
X85282587Y-37807007D01*
X85242856Y-37767276D01*
X85156661Y-37681081D01*
X84603399Y-37127819D01*
X83771225Y-36295644D01*
X83687595Y-36212014D01*
X100950000Y-36212014D01*
X100950000Y-36447985D01*
X100980799Y-36681914D01*
X101041870Y-36909837D01*
X101132160Y-37127819D01*
X101132165Y-37127828D01*
X101250144Y-37332171D01*
X101250145Y-37332172D01*
X101312721Y-37413723D01*
X102148958Y-36577487D01*
X102173978Y-36637890D01*
X102245112Y-36744351D01*
X102335649Y-36834888D01*
X102442110Y-36906022D01*
X102502511Y-36931041D01*
X101666275Y-37767277D01*
X101747827Y-37829854D01*
X101747828Y-37829855D01*
X101952171Y-37947834D01*
X101952180Y-37947839D01*
X102170163Y-38038129D01*
X102170161Y-38038129D01*
X102398085Y-38099200D01*
X102632014Y-38129999D01*
X102632029Y-38130000D01*
X102867971Y-38130000D01*
X102867985Y-38129999D01*
X103101914Y-38099200D01*
X103329837Y-38038129D01*
X103547819Y-37947839D01*
X103547828Y-37947834D01*
X103752181Y-37829850D01*
X103833723Y-37767279D01*
X103833723Y-37767276D01*
X102997487Y-36931041D01*
X103057890Y-36906022D01*
X103164351Y-36834888D01*
X103254888Y-36744351D01*
X103326022Y-36637890D01*
X103351041Y-36577488D01*
X104187276Y-37413723D01*
X104187279Y-37413723D01*
X104249850Y-37332181D01*
X104367834Y-37127828D01*
X104367839Y-37127819D01*
X104458129Y-36909837D01*
X104519200Y-36681914D01*
X104549999Y-36447985D01*
X104550000Y-36447971D01*
X104550000Y-36212028D01*
X104549999Y-36212014D01*
X104519200Y-35978085D01*
X104458129Y-35750162D01*
X104367839Y-35532180D01*
X104367834Y-35532171D01*
X104249855Y-35327828D01*
X104249854Y-35327827D01*
X104187277Y-35246275D01*
X103351041Y-36082511D01*
X103326022Y-36022110D01*
X103254888Y-35915649D01*
X103164351Y-35825112D01*
X103057890Y-35753978D01*
X102997488Y-35728958D01*
X103833723Y-34892721D01*
X103752172Y-34830145D01*
X103752171Y-34830144D01*
X103547828Y-34712165D01*
X103547819Y-34712160D01*
X103329836Y-34621870D01*
X103329838Y-34621870D01*
X103101914Y-34560799D01*
X102867985Y-34530000D01*
X102632014Y-34530000D01*
X102398085Y-34560799D01*
X102170162Y-34621870D01*
X101952180Y-34712160D01*
X101952171Y-34712165D01*
X101747828Y-34830144D01*
X101747818Y-34830150D01*
X101666275Y-34892720D01*
X101666275Y-34892721D01*
X102502512Y-35728958D01*
X102442110Y-35753978D01*
X102335649Y-35825112D01*
X102245112Y-35915649D01*
X102173978Y-36022110D01*
X102148958Y-36082511D01*
X101312721Y-35246275D01*
X101312720Y-35246275D01*
X101250150Y-35327818D01*
X101250144Y-35327828D01*
X101132165Y-35532171D01*
X101132160Y-35532180D01*
X101041870Y-35750162D01*
X100980799Y-35978085D01*
X100950000Y-36212014D01*
X83687595Y-36212014D01*
X83086818Y-35611237D01*
X83053333Y-35549914D01*
X83050499Y-35523556D01*
X83050499Y-35149998D01*
X83050498Y-35149981D01*
X83039999Y-35047203D01*
X82984814Y-34880666D01*
X82892712Y-34731344D01*
X82768656Y-34607288D01*
X82675888Y-34550069D01*
X82619336Y-34515187D01*
X82619331Y-34515185D01*
X82617862Y-34514698D01*
X82452797Y-34460001D01*
X82452795Y-34460000D01*
X82350010Y-34449500D01*
X80149998Y-34449500D01*
X80149981Y-34449501D01*
X80047203Y-34460000D01*
X80047200Y-34460001D01*
X79880668Y-34515185D01*
X79880663Y-34515187D01*
X79731342Y-34607289D01*
X79607289Y-34731342D01*
X79515187Y-34880663D01*
X79515185Y-34880668D01*
X79511191Y-34892721D01*
X79460001Y-35047203D01*
X79460001Y-35047204D01*
X79460000Y-35047204D01*
X79449500Y-35149983D01*
X79449500Y-37350001D01*
X79449501Y-37350018D01*
X79460000Y-37452796D01*
X79460001Y-37452799D01*
X79515185Y-37619331D01*
X79515186Y-37619334D01*
X79607288Y-37768656D01*
X79731344Y-37892712D01*
X79880666Y-37984814D01*
X80047203Y-38039999D01*
X80149991Y-38050500D01*
X80523557Y-38050499D01*
X80590596Y-38070183D01*
X80611238Y-38086818D01*
X81934889Y-39410469D01*
X81968374Y-39471792D01*
X81963390Y-39541484D01*
X81921518Y-39597417D01*
X81856054Y-39621834D01*
X81815115Y-39617925D01*
X81601915Y-39560799D01*
X81367985Y-39530000D01*
X81132014Y-39530000D01*
X80898085Y-39560799D01*
X80670162Y-39621870D01*
X80452180Y-39712160D01*
X80452171Y-39712165D01*
X80247828Y-39830144D01*
X80247818Y-39830150D01*
X80166275Y-39892720D01*
X80166275Y-39892721D01*
X81002512Y-40728958D01*
X80942110Y-40753978D01*
X80835649Y-40825112D01*
X80745112Y-40915649D01*
X80673978Y-41022110D01*
X80648958Y-41082511D01*
X79812721Y-40246275D01*
X79812720Y-40246275D01*
X79750150Y-40327818D01*
X79750144Y-40327828D01*
X79632165Y-40532171D01*
X79632160Y-40532180D01*
X79541870Y-40750162D01*
X79480799Y-40978085D01*
X79450000Y-41212014D01*
X79450000Y-41447985D01*
X79480799Y-41681914D01*
X79541870Y-41909837D01*
X79632160Y-42127819D01*
X79632165Y-42127828D01*
X79750144Y-42332171D01*
X79750145Y-42332172D01*
X79812721Y-42413723D01*
X80648958Y-41577487D01*
X80673978Y-41637890D01*
X80745112Y-41744351D01*
X80835649Y-41834888D01*
X80942110Y-41906022D01*
X81002510Y-41931041D01*
X80166275Y-42767277D01*
X80247827Y-42829854D01*
X80247828Y-42829855D01*
X80452171Y-42947834D01*
X80452180Y-42947839D01*
X80670163Y-43038129D01*
X80670161Y-43038129D01*
X80898085Y-43099200D01*
X81132014Y-43129999D01*
X81132029Y-43130000D01*
X81367971Y-43130000D01*
X81367985Y-43129999D01*
X81601914Y-43099200D01*
X81829837Y-43038129D01*
X82047819Y-42947839D01*
X82047832Y-42947832D01*
X82063498Y-42938788D01*
X82131398Y-42922314D01*
X82197426Y-42945166D01*
X82240617Y-43000086D01*
X82249500Y-43046174D01*
X82249500Y-44553556D01*
X82229815Y-44620595D01*
X82213181Y-44641237D01*
X80611236Y-46243181D01*
X80549913Y-46276666D01*
X80523555Y-46279500D01*
X80149998Y-46279500D01*
X80149980Y-46279501D01*
X80047203Y-46290000D01*
X80047200Y-46290001D01*
X79880668Y-46345185D01*
X79880663Y-46345187D01*
X79731342Y-46437289D01*
X79607289Y-46561342D01*
X79515187Y-46710663D01*
X79515186Y-46710666D01*
X79460001Y-46877203D01*
X79460001Y-46877204D01*
X79460000Y-46877204D01*
X79449500Y-46979983D01*
X79449500Y-47353556D01*
X79429815Y-47420595D01*
X79413181Y-47441237D01*
X73031084Y-53823333D01*
X73031078Y-53823340D01*
X72964966Y-53909500D01*
X72891388Y-54005388D01*
X72776657Y-54204108D01*
X72776650Y-54204123D01*
X72688842Y-54416112D01*
X72686034Y-54426592D01*
X72647537Y-54570269D01*
X72629453Y-54637759D01*
X72629451Y-54637770D01*
X72599500Y-54865258D01*
X72599500Y-82267993D01*
X72597825Y-82278367D01*
X72596869Y-82293401D01*
X72595423Y-82300303D01*
X72560001Y-82407203D01*
X72549500Y-82509991D01*
X63250500Y-82509991D01*
X63250500Y-27643711D01*
X80327000Y-27643711D01*
X80327000Y-27886288D01*
X80358661Y-28126785D01*
X80421447Y-28361104D01*
X80504290Y-28561104D01*
X80514276Y-28585212D01*
X80635564Y-28795289D01*
X80635566Y-28795292D01*
X80635567Y-28795293D01*
X80783233Y-28987736D01*
X80783239Y-28987743D01*
X80954756Y-29159260D01*
X80954762Y-29159265D01*
X81147211Y-29306936D01*
X81357288Y-29428224D01*
X81581400Y-29521054D01*
X81815711Y-29583838D01*
X81996086Y-29607584D01*
X82056211Y-29615500D01*
X82056212Y-29615500D01*
X82298789Y-29615500D01*
X82346888Y-29609167D01*
X82539289Y-29583838D01*
X82773600Y-29521054D01*
X82997712Y-29428224D01*
X83207789Y-29306936D01*
X83400238Y-29159265D01*
X83571765Y-28987738D01*
X83719436Y-28795289D01*
X83840724Y-28585212D01*
X83933554Y-28361100D01*
X83996338Y-28126789D01*
X84028000Y-27886288D01*
X84028000Y-27843711D01*
X100827000Y-27843711D01*
X100827000Y-28086288D01*
X100858661Y-28326785D01*
X100921447Y-28561104D01*
X100931433Y-28585212D01*
X101014276Y-28785212D01*
X101135564Y-28995289D01*
X101135566Y-28995292D01*
X101135567Y-28995293D01*
X101283233Y-29187736D01*
X101283239Y-29187743D01*
X101454756Y-29359260D01*
X101454762Y-29359265D01*
X101647211Y-29506936D01*
X101857288Y-29628224D01*
X102081400Y-29721054D01*
X102315711Y-29783838D01*
X102496086Y-29807584D01*
X102556211Y-29815500D01*
X102556212Y-29815500D01*
X102798789Y-29815500D01*
X102846888Y-29809167D01*
X103039289Y-29783838D01*
X103273600Y-29721054D01*
X103497712Y-29628224D01*
X103707789Y-29506936D01*
X103900238Y-29359265D01*
X104071765Y-29187738D01*
X104219436Y-28995289D01*
X104340724Y-28785212D01*
X104433554Y-28561100D01*
X104496338Y-28326789D01*
X104528000Y-28086288D01*
X104528000Y-27843712D01*
X104496338Y-27603211D01*
X104433554Y-27368900D01*
X104340724Y-27144788D01*
X104219436Y-26934711D01*
X104071765Y-26742262D01*
X104071760Y-26742256D01*
X103900243Y-26570739D01*
X103900236Y-26570733D01*
X103707793Y-26423067D01*
X103707792Y-26423066D01*
X103707789Y-26423064D01*
X103497712Y-26301776D01*
X103497705Y-26301773D01*
X103273604Y-26208947D01*
X103039285Y-26146161D01*
X102798789Y-26114500D01*
X102798788Y-26114500D01*
X102556212Y-26114500D01*
X102556211Y-26114500D01*
X102315714Y-26146161D01*
X102081395Y-26208947D01*
X101857294Y-26301773D01*
X101857285Y-26301777D01*
X101647206Y-26423067D01*
X101454763Y-26570733D01*
X101454756Y-26570739D01*
X101283239Y-26742256D01*
X101283233Y-26742263D01*
X101135567Y-26934706D01*
X101014277Y-27144785D01*
X101014273Y-27144794D01*
X100921447Y-27368895D01*
X100858661Y-27603214D01*
X100827000Y-27843711D01*
X84028000Y-27843711D01*
X84028000Y-27643712D01*
X83996338Y-27403211D01*
X83933554Y-27168900D01*
X83840724Y-26944788D01*
X83719436Y-26734711D01*
X83571765Y-26542262D01*
X83571760Y-26542256D01*
X83400243Y-26370739D01*
X83400236Y-26370733D01*
X83207793Y-26223067D01*
X83207792Y-26223066D01*
X83207789Y-26223064D01*
X82997712Y-26101776D01*
X82997705Y-26101773D01*
X82773604Y-26008947D01*
X82539285Y-25946161D01*
X82298789Y-25914500D01*
X82298788Y-25914500D01*
X82056212Y-25914500D01*
X82056211Y-25914500D01*
X81815714Y-25946161D01*
X81581395Y-26008947D01*
X81357294Y-26101773D01*
X81357285Y-26101777D01*
X81147206Y-26223067D01*
X80954763Y-26370733D01*
X80954756Y-26370739D01*
X80783239Y-26542256D01*
X80783233Y-26542263D01*
X80635567Y-26734706D01*
X80635564Y-26734710D01*
X80635564Y-26734711D01*
X80631204Y-26742263D01*
X80514277Y-26944785D01*
X80514273Y-26944794D01*
X80421447Y-27168895D01*
X80358661Y-27403214D01*
X80327000Y-27643711D01*
X63250500Y-27643711D01*
X63250500Y-25013750D01*
X63250726Y-25006263D01*
X63268271Y-24716205D01*
X63270076Y-24701340D01*
X63321780Y-24419202D01*
X63325364Y-24404664D01*
X63410699Y-24130812D01*
X63415997Y-24116842D01*
X63533727Y-23855258D01*
X63540680Y-23842012D01*
X63580959Y-23775381D01*
X63689075Y-23596534D01*
X63697567Y-23584230D01*
X63874481Y-23358417D01*
X63884396Y-23347226D01*
X64087226Y-23144396D01*
X64098417Y-23134481D01*
X64324230Y-22957567D01*
X64336534Y-22949075D01*
X64582012Y-22800680D01*
X64595258Y-22793727D01*
X64856842Y-22675997D01*
X64870812Y-22670699D01*
X65144668Y-22585362D01*
X65159198Y-22581780D01*
X65441344Y-22530075D01*
X65456201Y-22528271D01*
X65746264Y-22510726D01*
X65753751Y-22510500D01*
X65815892Y-22510500D01*
X117684108Y-22510500D01*
X117746249Y-22510500D01*
X117753736Y-22510726D01*
G37*
%TD.AperFunction*%
%TD*%
M02*
